<svg xmlns="http://www.w3.org/2000/svg" width="810.666" height="559.591" viewBox="0 0 810.666 559.591">
  <g id="_2112.w039.n003.60B.p1.60_Converted_" data-name="2112.w039.n003.60B.p1.60 [Converted]" transform="translate(-76.51 -4.92)">
    <g id="Group_52459" data-name="Group 52459" transform="translate(76.51 4.92)">
      <g id="Group_52363" data-name="Group 52363" transform="translate(207.441 315.343)">
        <g id="Group_52361" data-name="Group 52361">
          <g id="Group_52360" data-name="Group 52360">
            <path id="Path_105719" data-name="Path 105719" d="M254.86,276.33" transform="translate(-254.86 -275.993)" fill="#fff"/>
            <path id="Path_105720" data-name="Path 105720" d="M255.28,276.04a.563.563,0,0,1-.14.791" transform="translate(-254.814 -276.04)"/>
          </g>
        </g>
        <g id="Group_52362" data-name="Group 52362">
          <path id="Path_105721" data-name="Path 105721" d="M254.86,276.33" transform="translate(-254.86 -275.993)" fill="#acd4f7"/>
          <path id="Path_105722" data-name="Path 105722" d="M255.28,276.04a.563.563,0,0,1-.14.791" transform="translate(-254.814 -276.04)"/>
        </g>
      </g>
      <g id="Group_52374" data-name="Group 52374" transform="translate(401.61 241.666)">
        <g id="Group_52373" data-name="Group 52373" transform="translate(0 0)">
          <g id="Group_52364" data-name="Group 52364">
            <path id="Path_105723" data-name="Path 105723" d="M417.98,159.885h0a36.971,36.971,0,0,1,36.975-36.975h56.039a36.971,36.971,0,0,1,36.975,36.975h0a36.971,36.971,0,0,1-36.975,36.975H454.955A36.979,36.979,0,0,1,417.98,159.885Z" transform="translate(-417.422 -122.34)" fill="#fff"/>
            <path id="Path_105724" data-name="Path 105724" d="M534.625,197.511H431.492A14.006,14.006,0,0,1,417.5,183.518V136.412a14.006,14.006,0,0,1,13.992-13.992H534.625a14.006,14.006,0,0,1,13.992,13.992v47.106A13.991,13.991,0,0,1,534.625,197.511ZM431.492,123.56a12.864,12.864,0,0,0-12.852,12.852v47.106a12.864,12.864,0,0,0,12.852,12.852H534.625a12.864,12.864,0,0,0,12.852-12.852V136.412a12.864,12.864,0,0,0-12.852-12.852H431.492Z" transform="translate(-417.5 -122.42)"/>
          </g>
          <g id="Group_52365" data-name="Group 52365" transform="translate(18.61 16.807)">
            <path id="Path_105725" data-name="Path 105725" d="M483.816,138.01H434.07a.57.57,0,0,1,0-1.14h49.746a.57.57,0,1,1,0,1.14Z" transform="translate(-433.5 -136.87)"/>
          </g>
          <g id="Group_52366" data-name="Group 52366" transform="translate(18.61 29.252)">
            <path id="Path_105726" data-name="Path 105726" d="M473.593,148.71H434.07a.57.57,0,0,1,0-1.14h39.523a.57.57,0,0,1,0,1.14Z" transform="translate(-433.5 -147.57)"/>
          </g>
          <g id="Group_52367" data-name="Group 52367" transform="translate(18.61 41.698)">
            <path id="Path_105727" data-name="Path 105727" d="M490.33,159.41H434.07a.57.57,0,0,1,0-1.14h56.26a.57.57,0,0,1,0,1.14Z" transform="translate(-433.5 -158.27)"/>
          </g>
          <g id="Group_52368" data-name="Group 52368" transform="translate(18.61 54.143)">
            <path id="Path_105728" data-name="Path 105728" d="M473.593,170.11H434.07a.57.57,0,0,1,0-1.14h39.523a.57.57,0,0,1,0,1.14Z" transform="translate(-433.5 -168.97)"/>
          </g>
          <g id="Group_52369" data-name="Group 52369" transform="translate(74.87 54.143)">
            <path id="Path_105729" data-name="Path 105729" d="M518.938,170.11h-36.5a.57.57,0,1,1,0-1.14h36.5a.57.57,0,0,1,0,1.14Z" transform="translate(-481.87 -168.97)"/>
          </g>
          <g id="Group_52370" data-name="Group 52370" transform="translate(90.188 41.698)">
            <path id="Path_105730" data-name="Path 105730" d="M516.79,159.41H495.61a.57.57,0,0,1,0-1.14h21.18a.57.57,0,0,1,0,1.14Z" transform="translate(-495.04 -158.27)"/>
          </g>
          <g id="Group_52371" data-name="Group 52371" transform="translate(74.87 29.252)">
            <path id="Path_105731" data-name="Path 105731" d="M518.938,148.71h-36.5a.57.57,0,1,1,0-1.14h36.5a.57.57,0,0,1,0,1.14Z" transform="translate(-481.87 -147.57)"/>
          </g>
          <g id="Group_52372" data-name="Group 52372" transform="translate(82.825 16.807)">
            <path id="Path_105732" data-name="Path 105732" d="M517.823,138.01H489.28a.57.57,0,1,1,0-1.14h28.543a.57.57,0,0,1,0,1.14Z" transform="translate(-488.71 -136.87)"/>
          </g>
        </g>
      </g>
      <g id="Group_52385" data-name="Group 52385" transform="translate(252.465 241.788)">
        <g id="Group_52384" data-name="Group 52384">
          <g id="Group_52375" data-name="Group 52375">
            <path id="Path_105733" data-name="Path 105733" d="M424.049,250.265h0a36.971,36.971,0,0,1-36.975,36.975H331.035a36.971,36.971,0,0,1-36.975-36.975h0a36.971,36.971,0,0,1,36.975-36.975h56.039A36.964,36.964,0,0,1,424.049,250.265Z" transform="translate(-293.49 -212.72)" fill="#fff"/>
            <path id="Path_105734" data-name="Path 105734" d="M410.707,287.891H307.562A14.006,14.006,0,0,1,293.57,273.9V226.792A14.006,14.006,0,0,1,307.562,212.8H410.7a14.006,14.006,0,0,1,13.992,13.992V273.9A14,14,0,0,1,410.707,287.891ZM307.562,213.928a12.864,12.864,0,0,0-12.852,12.852v47.106a12.864,12.864,0,0,0,12.852,12.852H410.7a12.864,12.864,0,0,0,12.852-12.852V226.781A12.864,12.864,0,0,0,410.7,213.928Z" transform="translate(-293.57 -212.8)"/>
          </g>
          <g id="Group_52376" data-name="Group 52376" transform="translate(61.633 57.144)">
            <path id="Path_105735" data-name="Path 105735" d="M396.876,263.07H347.13a.57.57,0,0,1,0-1.14h49.746a.57.57,0,1,1,0,1.14Z" transform="translate(-346.56 -261.93)"/>
          </g>
          <g id="Group_52377" data-name="Group 52377" transform="translate(71.857 44.698)">
            <path id="Path_105736" data-name="Path 105736" d="M395.443,252.37H355.92a.57.57,0,0,1,0-1.14h39.523a.57.57,0,0,1,0,1.14Z" transform="translate(-355.35 -251.23)"/>
          </g>
          <g id="Group_52378" data-name="Group 52378" transform="translate(55.12 32.253)">
            <path id="Path_105737" data-name="Path 105737" d="M397.79,241.67H341.53a.57.57,0,0,1,0-1.14h56.26a.57.57,0,0,1,0,1.14Z" transform="translate(-340.96 -240.53)"/>
          </g>
          <g id="Group_52379" data-name="Group 52379" transform="translate(71.857 19.808)">
            <path id="Path_105738" data-name="Path 105738" d="M395.443,230.97H355.92a.57.57,0,0,1,0-1.14h39.523a.57.57,0,0,1,0,1.14Z" transform="translate(-355.35 -229.83)"/>
          </g>
          <g id="Group_52380" data-name="Group 52380" transform="translate(18.621 19.808)">
            <path id="Path_105739" data-name="Path 105739" d="M346.648,230.97h-36.5a.57.57,0,0,1,0-1.14h36.5a.57.57,0,0,1,0,1.14Z" transform="translate(-309.58 -229.83)"/>
          </g>
          <g id="Group_52381" data-name="Group 52381" transform="translate(18.621 32.253)">
            <path id="Path_105740" data-name="Path 105740" d="M331.33,241.67H310.15a.57.57,0,0,1,0-1.14h21.18a.57.57,0,0,1,0,1.14Z" transform="translate(-309.58 -240.53)"/>
          </g>
          <g id="Group_52382" data-name="Group 52382" transform="translate(18.621 44.698)">
            <path id="Path_105741" data-name="Path 105741" d="M346.648,252.37h-36.5a.57.57,0,0,1,0-1.14h36.5a.57.57,0,0,1,0,1.14Z" transform="translate(-309.58 -251.23)"/>
          </g>
          <g id="Group_52383" data-name="Group 52383" transform="translate(18.61 57.144)">
            <path id="Path_105742" data-name="Path 105742" d="M338.683,263.07H310.14a.57.57,0,1,1,0-1.14h28.543a.57.57,0,0,1,0,1.14Z" transform="translate(-309.57 -261.93)"/>
          </g>
        </g>
      </g>
      <g id="Group_52449" data-name="Group 52449" transform="translate(118.8)">
        <g id="Group_52395" data-name="Group 52395">
          <g id="Group_52387" data-name="Group 52387">
            <g id="Group_52386" data-name="Group 52386">
              <path id="Path_105743" data-name="Path 105743" d="M179.14,5.41V261.155H395.735V5.41ZM378.777,211.642H194.889V31.906H378.777Z" transform="translate(-178.57 -4.84)" fill="#fff"/>
              <path id="Path_105744" data-name="Path 105744" d="M395.815,261.793H179.22a.571.571,0,0,1-.57-.57V5.49a.571.571,0,0,1,.57-.57H395.815a.571.571,0,0,1,.57.57V261.235A.561.561,0,0,1,395.815,261.793Zm-216.025-1.14H395.245V6.06H179.79Zm199.067-48.362H194.968a.571.571,0,0,1-.57-.57V31.986a.571.571,0,0,1,.57-.57H378.857a.571.571,0,0,1,.57.57V211.721A.564.564,0,0,1,378.857,212.291Zm-183.318-1.14H378.287V32.556H195.538Z" transform="translate(-178.65 -4.92)"/>
            </g>
          </g>
          <g id="Group_52389" data-name="Group 52389" transform="translate(184.051 86.301)">
            <g id="Group_52388" data-name="Group 52388" opacity="0.129">
              <path id="Path_105745" data-name="Path 105745" d="M336.89,79.237h0C337.053,79.109,337.123,79.051,336.89,79.237Z" transform="translate(-336.89 -79.118)"/>
            </g>
          </g>
          <g id="Group_52390" data-name="Group 52390" transform="translate(182.733 86.511)">
            <path id="Path_105746" data-name="Path 105746" d="M343.123,84.011c.419-.721.454-.035.686-.837a3.7,3.7,0,0,0-.058-2.454,2.276,2.276,0,0,0-1.908-1.419,3.612,3.612,0,0,0-2.559,1.512,22.052,22.052,0,0,0-3.164,4.176c-.314.57-.57,1.338-.128,1.814a1.317,1.317,0,0,0,.942.349,3.411,3.411,0,0,0,2.664-1.117c.291-.326.512-.7.826-1a3.83,3.83,0,0,0,.942-1.093C341.786,82.778,341.774,81.987,343.123,84.011Z" transform="translate(-335.757 -79.299)" fill="#fff"/>
          </g>
          <g id="Group_52391" data-name="Group 52391" transform="translate(17.691 5.595)">
            <path id="Path_105747" data-name="Path 105747" d="M194.35,16.966a6.746,6.746,0,1,1,6.746,6.746A6.751,6.751,0,0,1,194.35,16.966Z" transform="translate(-193.78 -9.65)" fill="#fff"/>
            <path id="Path_105748" data-name="Path 105748" d="M201.176,24.362a7.316,7.316,0,1,1,7.316-7.316A7.322,7.322,0,0,1,201.176,24.362Zm0-13.492a6.176,6.176,0,1,0,6.176,6.176A6.18,6.18,0,0,0,201.176,10.87Z" transform="translate(-193.86 -9.73)"/>
          </g>
          <g id="Group_52392" data-name="Group 52392" transform="translate(39.906 12.341)">
            <path id="Path_105749" data-name="Path 105749" d="M269.79,16.67H213.53a.57.57,0,1,1,0-1.14h56.26a.57.57,0,0,1,0,1.14Z" transform="translate(-212.96 -15.53)"/>
          </g>
          <g id="Group_52393" data-name="Group 52393" transform="translate(17.261 222.922)">
            <path id="Path_105750" data-name="Path 105750" d="M250.32,197.72H194.06a.57.57,0,0,1,0-1.14h56.26a.571.571,0,0,1,.57.57A.556.556,0,0,1,250.32,197.72Z" transform="translate(-193.49 -196.58)"/>
          </g>
          <g id="Group_52394" data-name="Group 52394" transform="translate(17.261 232.436)">
            <path id="Path_105751" data-name="Path 105751" d="M233.583,205.9H194.06a.57.57,0,0,1,0-1.14h39.523a.57.57,0,1,1,0,1.14Z" transform="translate(-193.49 -204.76)"/>
          </g>
        </g>
        <g id="Group_52448" data-name="Group 52448" transform="translate(309.449 302.718)">
          <g id="Group_52396" data-name="Group 52396" transform="translate(78.843 99.632)">
            <path id="Path_105752" data-name="Path 105752" d="M543.781,368.484c.942-18.272-.861-37.673-8.165-54.445a194.91,194.91,0,0,1-14.725,26.8c-1.791-3.059-3.385-6.292-4.978-9.526-.407-.826-.814-1.663-1.221-2.489-2.233-4.548-4.466-9.084-6.5-13.725,2.733-11.038,5.746-21.994,9.247-32.811a18.541,18.541,0,0,1,1.814-4.315c1.721-2.745,4.676-4.443,7.572-5.9a97.986,97.986,0,0,1,25.03-8.584,7.967,7.967,0,0,1,3.315-2.919,27.188,27.188,0,0,0,7.246,11.782c1.5,1.535,3.478,3.071,5.5,2.85,5.536-1.9,8.7-7.618,13.329-11.189a8.343,8.343,0,0,1,5.792-2.059q7.171,1.378,14.33,2.768c7.886,1.524,16.039,3.152,22.611,7.793a22.035,22.035,0,0,1,4.152,3.78,339.371,339.371,0,0,1,17.958,53.189c2.245,8.828,4.234,18.086,2.268,27.182a19.639,19.639,0,0,1-5.42,6.851,14.776,14.776,0,0,1-4.559,2.791,19.82,19.82,0,0,1-6.036.756c-4.327.081-8.642.163-12.969.256Z" transform="translate(-508.19 -260.57)" fill="#fff"/>
          </g>
          <g id="Group_52403" data-name="Group 52403" transform="translate(18.966 0)">
            <g id="Group_52398" data-name="Group 52398">
              <g id="Group_52397" data-name="Group 52397">
                <path id="Path_105753" data-name="Path 105753" d="M457.2,175.4V431.145H673.795V175.4ZM656.837,381.632H472.949V201.9H656.837Z" transform="translate(-456.63 -174.83)" fill="#fff"/>
                <path id="Path_105754" data-name="Path 105754" d="M673.875,431.783H457.28a.571.571,0,0,1-.57-.57V175.48a.571.571,0,0,1,.57-.57H673.886a.571.571,0,0,1,.57.57V431.225A.587.587,0,0,1,673.875,431.783Zm-216.025-1.14H673.3V176.038H457.85Zm199.067-48.362H473.029a.571.571,0,0,1-.57-.57V201.976a.571.571,0,0,1,.57-.57H656.917a.571.571,0,0,1,.57.57V381.711A.564.564,0,0,1,656.917,382.281ZM473.6,381.142H656.347v-178.6H473.6Z" transform="translate(-456.71 -174.91)"/>
              </g>
            </g>
            <g id="Group_52399" data-name="Group 52399" transform="translate(17.691 5.595)">
              <path id="Path_105755" data-name="Path 105755" d="M472.41,186.956a6.746,6.746,0,1,1,6.746,6.746A6.751,6.751,0,0,1,472.41,186.956Z" transform="translate(-471.84 -179.64)" fill="#fff"/>
              <path id="Path_105756" data-name="Path 105756" d="M479.236,194.352a7.316,7.316,0,1,1,7.316-7.316A7.322,7.322,0,0,1,479.236,194.352Zm0-13.492a6.176,6.176,0,1,0,6.176,6.176A6.18,6.18,0,0,0,479.236,180.86Z" transform="translate(-471.92 -179.72)"/>
            </g>
            <g id="Group_52400" data-name="Group 52400" transform="translate(39.906 12.341)">
              <path id="Path_105757" data-name="Path 105757" d="M547.85,186.66H491.59a.57.57,0,1,1,0-1.14h56.26a.57.57,0,0,1,0,1.14Z" transform="translate(-491.02 -185.52)"/>
            </g>
            <g id="Group_52401" data-name="Group 52401" transform="translate(17.261 222.922)">
              <path id="Path_105758" data-name="Path 105758" d="M528.38,367.71H472.12a.57.57,0,0,1,0-1.14h56.26a.57.57,0,1,1,0,1.14Z" transform="translate(-471.55 -366.57)"/>
            </g>
            <g id="Group_52402" data-name="Group 52402" transform="translate(17.261 232.436)">
              <path id="Path_105759" data-name="Path 105759" d="M511.642,375.89H472.12a.57.57,0,0,1,0-1.14h39.523a.57.57,0,1,1,0,1.14Z" transform="translate(-471.55 -374.75)"/>
            </g>
          </g>
          <g id="Group_52404" data-name="Group 52404" transform="translate(102.891 178.316)">
            <path id="Path_105760" data-name="Path 105760" d="M540.362,328.8a27.533,27.533,0,0,0-11.108,13.853,3.988,3.988,0,0,0-.3,2.4,1.589,1.589,0,0,0,2.012,1.117,1.847,1.847,0,0,0,1.245,2.082,1.869,1.869,0,0,0,2.187-1.07,1.3,1.3,0,0,0,1.454.593,3.707,3.707,0,0,0,1.466-.837l3.489-2.757a27.539,27.539,0,0,1,4.722-3.222,18.315,18.315,0,0,0,2.768-1.431,5.365,5.365,0,0,0,1.977-5.7,8.984,8.984,0,0,0-3.641-4.315,5.894,5.894,0,0,0-2.664-1.268C542.514,328.069,541.107,328.906,540.362,328.8Z" transform="translate(-528.866 -328.219)" fill="#fff"/>
          </g>
          <g id="Group_52405" data-name="Group 52405" transform="translate(97.852 200.044)">
            <path id="Path_105761" data-name="Path 105761" d="M527.288,354.324q14.638-.209,29.264-.43l-.128-6.513-31.4.733Z" transform="translate(-524.454 -346.822)" fill="#fff"/>
            <path id="Path_105762" data-name="Path 105762" d="M527.367,354.972a.567.567,0,0,1-.535-.372l-2.268-6.211a.571.571,0,0,1,.07-.512.563.563,0,0,1,.454-.244l31.4-.733a.581.581,0,0,1,.407.163.565.565,0,0,1,.175.4l.128,6.513a.581.581,0,0,1-.163.407.571.571,0,0,1-.407.174l-29.264.419Zm-1.465-6.223,1.849,5.083,28.287-.419-.1-5.362Z" transform="translate(-524.533 -346.9)"/>
          </g>
          <g id="Group_52406" data-name="Group 52406" transform="translate(123.731 73.888)">
            <path id="Path_105763" data-name="Path 105763" d="M547.26,245.841a151.271,151.271,0,0,1,1.617,25.937,4.4,4.4,0,0,0,.291,2.128,4,4,0,0,0,1.617,1.489c4.385,2.652,9.782,3.873,14.737,2.57s9.27-5.374,9.735-10.863c-2.094-7.048-5.583-16.877-8.293-28.182A164.45,164.45,0,0,1,547.26,245.841Z" transform="translate(-546.706 -238.357)" fill="#fff"/>
            <path id="Path_105764" data-name="Path 105764" d="M561.435,279.15a21.193,21.193,0,0,1-10.863-3.175,4.488,4.488,0,0,1-1.826-1.721,4.828,4.828,0,0,1-.349-2.4,150.113,150.113,0,0,0-1.605-25.844.564.564,0,0,1,.4-.628,164.107,164.107,0,0,0,19.622-6.9.555.555,0,0,1,.488.012.539.539,0,0,1,.3.384c1.908,7.991,4.257,15.376,6.153,21.3.779,2.466,1.524,4.792,2.14,6.851a.644.644,0,0,1,.023.209c-.442,5.327-4.525,9.9-10.154,11.375A17.921,17.921,0,0,1,561.435,279.15Zm-13.457-32.823a151.428,151.428,0,0,1,1.547,25.554,4.053,4.053,0,0,0,.233,1.861,3.557,3.557,0,0,0,1.4,1.256,18.72,18.72,0,0,0,14.295,2.5c4.269-1.117,8.781-4.722,9.293-10.259-.6-2.024-1.326-4.3-2.094-6.723-1.838-5.781-4.117-12.945-6.013-20.715A167.57,167.57,0,0,1,547.977,246.327Z" transform="translate(-546.784 -238.436)"/>
          </g>
          <g id="Group_52414" data-name="Group 52414" transform="translate(104.556 11.067)">
            <g id="Group_52407" data-name="Group 52407" transform="translate(36.7 26.785)">
              <path id="Path_105765" data-name="Path 105765" d="M584.871,210.4a193.98,193.98,0,0,1-6.607,20.738A52.352,52.352,0,0,1,571.844,243a7.466,7.466,0,0,1-4.257,3.164c.081-1.791-1.687-2.884-1.791-4.687-.116-2.222,1.489-3.989.372-6.06a32.2,32.2,0,0,1-3.745-12.4c-.291-3.466.058-7.048,2-10.026a11.481,11.481,0,0,1,9.875-5.048C577.485,208.069,582.6,208.139,584.871,210.4Z" transform="translate(-561.771 -207.375)" fill="#fff"/>
              <path id="Path_105766" data-name="Path 105766" d="M567.654,246.809a.517.517,0,0,1-.337-.116.6.6,0,0,1-.233-.477,3.69,3.69,0,0,0-.791-2.094,5.317,5.317,0,0,1-.989-2.524,7.967,7.967,0,0,1,.419-2.675,3.961,3.961,0,0,0,.023-3.152,32.272,32.272,0,0,1-3.8-12.608c-.361-4.269.326-7.665,2.094-10.387a12.058,12.058,0,0,1,10.375-5.315l.5.023c3.245.116,8.142.291,10.445,2.594a.587.587,0,0,1,.151.547,189.9,189.9,0,0,1-6.63,20.785,52.958,52.958,0,0,1-6.49,12,8.006,8.006,0,0,1-4.536,3.373A1.142,1.142,0,0,1,567.654,246.809Zm6.316-38.22a10.878,10.878,0,0,0-8.979,4.8c-1.628,2.489-2.245,5.653-1.908,9.665a31.381,31.381,0,0,0,3.675,12.178,4.95,4.95,0,0,1,.07,4,6.87,6.87,0,0,0-.372,2.3,4.239,4.239,0,0,0,.826,1.989,6.4,6.4,0,0,1,.9,1.931,6.659,6.659,0,0,0,3.3-2.71,51.337,51.337,0,0,0,6.351-11.736,191.648,191.648,0,0,0,6.5-20.343c-2.105-1.78-6.5-1.942-9.445-2.047l-.5-.023C574.226,208.589,574.1,208.589,573.97,208.589Z" transform="translate(-561.85 -207.453)"/>
            </g>
            <g id="Group_52408" data-name="Group 52408" transform="translate(3.897 18.665)">
              <path id="Path_105767" data-name="Path 105767" d="M538.373,216.563c-.64,5.874-2.757,11.492-3.745,17.307s-.7,12.178,3.036,17.342a21.631,21.631,0,0,0,15.33,8.293c6.141.547,12.364-1.559,16.167-5.478,3.582-3.687,5.595-12.678,6.769-17.144a8.439,8.439,0,0,0,7.7-1.082,4.611,4.611,0,0,0,.791-6.432c-1.594-2-3.931-2.652-7.048-.57a43.075,43.075,0,0,0,.733-9.2c-.035-4.687.977-11.468-1.873-13.922-1.617-1.4-5.257-2.966-7.281-3.873-3.513-1.547-8.991-.058-12.829-.7s-8.06.558-11.468,1.966C540.594,204.78,538.85,212.178,538.373,216.563Z" transform="translate(-533.566 -200.398)" fill="#fff"/>
              <path id="Path_105768" data-name="Path 105768" d="M555.028,260.254c-.663,0-1.326-.035-2-.093a22.261,22.261,0,0,1-15.749-8.526c-3.3-4.571-4.362-10.549-3.14-17.772.43-2.559,1.093-5.106,1.721-7.572a70.38,70.38,0,0,0,2.012-9.7h0c.209-1.954,1.547-11.829,6.641-13.934,4.525-1.873,8.491-2.547,11.782-2a25.288,25.288,0,0,0,5.176.058c2.745-.14,5.595-.291,7.793.675l.221.1c2.082.919,5.583,2.466,7.2,3.862,2.466,2.128,2.3,6.967,2.14,11.247-.035,1.1-.081,2.152-.07,3.105v.116a45.927,45.927,0,0,1-.512,7.956c2.617-1.3,4.967-.849,6.711,1.338a5.139,5.139,0,0,1-.884,7.223,8.931,8.931,0,0,1-7.665,1.361q-.122.454-.244.942c-1.279,4.966-3.21,12.469-6.525,15.888A20.567,20.567,0,0,1,555.028,260.254ZM553.993,201.6a24.074,24.074,0,0,0-9.026,2.094c-3.489,1.442-5.385,7.909-5.943,13h0a71.315,71.315,0,0,1-2.047,9.863c-.628,2.443-1.279,4.966-1.7,7.479-1.163,6.921-.175,12.608,2.943,16.923a21.026,21.026,0,0,0,14.923,8.06c5.99.535,12-1.5,15.714-5.315,3.105-3.2,5.071-10.829,6.234-15.376.14-.547.267-1.058.4-1.512a.576.576,0,0,1,.279-.361.615.615,0,0,1,.454-.047,7.808,7.808,0,0,0,7.165-.989,4.019,4.019,0,0,0,.709-5.629c-1.605-2.012-3.722-2.163-6.292-.454a.581.581,0,0,1-.64,0,.559.559,0,0,1-.233-.593,41.719,41.719,0,0,0,.721-8.956v-.116c-.012-.989.035-2.035.07-3.164.14-4.013.3-8.572-1.745-10.34-1.5-1.291-4.885-2.78-6.921-3.675l-.221-.1c-1.942-.861-4.652-.721-7.269-.582a26.985,26.985,0,0,1-5.42-.07A18.405,18.405,0,0,0,553.993,201.6Zm-15.539,15.039Z" transform="translate(-533.648 -200.472)"/>
            </g>
            <g id="Group_52409" data-name="Group 52409">
              <path id="Path_105769" data-name="Path 105769" d="M558.167,212.5c-.849,2.536-5.269,5.769-7.828,5.757s-3.385-1.279-4.141-3.827c-2.466,1.756-4.362,3.606-6.746,4.234a7.191,7.191,0,0,1-8.514-5.513c-.768-3.827,1.954-8.072,5.641-8.816-2.454.314-4.594-2.361-4.362-4.943a7.008,7.008,0,0,1,4.606-5.606c2.326-.9,4.9-.756,7.409-.849A6.533,6.533,0,0,1,547.3,186.1a10.039,10.039,0,0,1,7.514-.884,9.037,9.037,0,0,1,4.478,2.291,5.962,5.962,0,0,1,1.64,4.943c2.524-2.57,6.3-4.071,9.607-2.908s5.409,5.583,5.362,8.456c1.861-1.849,4.187-3.28,6.711-2.873,5,.8,5.676,5.211,2.826,10.48a5.842,5.842,0,0,1,7.549,4.571c.64,3-.919,7.5-3.175,9.561s-9.584,3.233-14.178-.861a13.484,13.484,0,0,1-4.117-7.735c-1.745,2.373-3.013,4-6.827,4.827C561.877,216.587,558.795,215.179,558.167,212.5Z" transform="translate(-530.214 -184.35)" fill="#fff"/>
              <path id="Path_105770" data-name="Path 105770" d="M583.42,222.279a12.118,12.118,0,0,1-8.107-2.873,13.439,13.439,0,0,1-4.013-6.839,9.707,9.707,0,0,1-6.432,4.059,6.167,6.167,0,0,1-6.688-2.652c-1.593,2.454-5.327,4.943-7.758,4.943h-.012c-2.605-.012-3.664-1.221-4.443-3.466-.372.279-.744.558-1.1.837a15.571,15.571,0,0,1-5.2,3.036,7.267,7.267,0,0,1-5.676-.965,7.775,7.775,0,0,1-3.547-4.99,8.469,8.469,0,0,1,4.094-8.747,4.3,4.3,0,0,1-1.151-.826,5.567,5.567,0,0,1-1.675-4.35,7.585,7.585,0,0,1,4.967-6.083,18.124,18.124,0,0,1,6.2-.849c.244,0,.488-.012.733-.012a7.278,7.278,0,0,1,3.454-6.769,10.514,10.514,0,0,1,7.944-.954,9.42,9.42,0,0,1,4.757,2.454,6.487,6.487,0,0,1,1.838,4.013c2.8-2.315,6.292-3.14,9.189-2.117,3.036,1.082,5.211,4.687,5.653,7.77,2.117-1.8,4.234-2.547,6.316-2.21a5.633,5.633,0,0,1,4.431,2.9c.919,1.861.686,4.431-.64,7.3a6.379,6.379,0,0,1,3.78.744,6.642,6.642,0,0,1,3.268,4.536,12.207,12.207,0,0,1-3.35,10.107C589.026,221.371,586.374,222.279,583.42,222.279Zm-11.841-11.608a.4.4,0,0,1,.116.012.574.574,0,0,1,.442.442,13.035,13.035,0,0,0,3.931,7.432c4.269,3.8,11.259,2.826,13.422.861a11.126,11.126,0,0,0,3-9.026,5.539,5.539,0,0,0-2.7-3.78,5.01,5.01,0,0,0-4.083-.384.569.569,0,0,1-.7-.8c1.617-3,2.035-5.606,1.175-7.374a4.5,4.5,0,0,0-3.594-2.28c-1.989-.314-4.083.593-6.223,2.722a.568.568,0,0,1-.628.116.588.588,0,0,1-.349-.535c.047-2.547-1.838-6.793-4.978-7.909-2.838-1.012-6.374.081-9,2.768a.587.587,0,0,1-.663.116.57.57,0,0,1-.314-.593,5.394,5.394,0,0,0-1.489-4.466,8.362,8.362,0,0,0-4.2-2.14,9.406,9.406,0,0,0-7.083.814,5.957,5.957,0,0,0-2.815,6.211.568.568,0,0,1-.093.489.6.6,0,0,1-.43.233l-1.407.035a17.3,17.3,0,0,0-5.816.768,6.459,6.459,0,0,0-4.245,5.118,4.337,4.337,0,0,0,1.326,3.431,2.871,2.871,0,0,0,2.4.884.572.572,0,0,1,.186,1.128c-3.373.686-5.9,4.652-5.2,8.153a6.671,6.671,0,0,0,3.036,4.257,6.161,6.161,0,0,0,4.78.826,14.174,14.174,0,0,0,4.8-2.838c.558-.43,1.14-.872,1.768-1.314a.538.538,0,0,1,.512-.07.55.55,0,0,1,.361.372c.721,2.4,1.372,3.408,3.606,3.42h.012c2.3,0,6.513-3.106,7.269-5.374a.566.566,0,0,1,.57-.384.557.557,0,0,1,.523.442c.582,2.454,3.489,3.559,5.827,3.059,3.687-.791,4.862-2.4,6.49-4.606A.552.552,0,0,1,571.579,210.671Z" transform="translate(-530.297 -184.425)"/>
            </g>
            <g id="Group_52410" data-name="Group 52410" transform="translate(13.24 42.576)">
              <path id="Path_105771" data-name="Path 105771" d="M541.68,222.368a1.4,1.4,0,1,1,1.407,1.314A1.371,1.371,0,0,1,541.68,222.368Z" transform="translate(-541.68 -221.03)"/>
            </g>
            <g id="Group_52411" data-name="Group 52411" transform="translate(32.454 45.67)">
              <path id="Path_105772" data-name="Path 105772" d="M558.2,225.028a1.4,1.4,0,1,1,1.407,1.314A1.371,1.371,0,0,1,558.2,225.028Z" transform="translate(-558.2 -223.69)"/>
            </g>
            <g id="Group_52412" data-name="Group 52412" transform="translate(22.133 66.261)">
              <path id="Path_105773" data-name="Path 105773" d="M552.25,244.367a7.12,7.12,0,0,1-2.559-.465.567.567,0,1,1,.407-1.058,6.287,6.287,0,0,0,6.467-1.291.568.568,0,1,1,.779.826A7.439,7.439,0,0,1,552.25,244.367Z" transform="translate(-549.326 -241.394)"/>
            </g>
            <g id="Group_52413" data-name="Group 52413" transform="translate(16.871 43.271)">
              <path id="Path_105774" data-name="Path 105774" d="M550.394,239.973a8.252,8.252,0,0,1-3.594-.907,3.656,3.656,0,0,1-1.524-1.175A3.158,3.158,0,0,1,545,235.1a8.63,8.63,0,0,1,1.012-1.954l.174-.267a25.1,25.1,0,0,0,3.675-10.736.573.573,0,0,1,1.14.116,26.326,26.326,0,0,1-3.85,11.224l-.174.279a8.165,8.165,0,0,0-.9,1.687,2.081,2.081,0,0,0,.128,1.791,2.819,2.819,0,0,0,1.093.8,7.022,7.022,0,0,0,3.338.791,4.051,4.051,0,0,0,2.9-1.326.57.57,0,0,1,.872.733,5.117,5.117,0,0,1-3.722,1.733A2.415,2.415,0,0,0,550.394,239.973Z" transform="translate(-544.802 -221.627)"/>
            </g>
          </g>
          <g id="Group_52415" data-name="Group 52415" transform="translate(71.694 99.767)">
            <path id="Path_105775" data-name="Path 105775" d="M631.633,367.209c-9.619,0-23.739-1.931-37.569-3.827-7.781-1.07-15.144-2.07-21.366-2.687a.573.573,0,0,1-.512-.628.582.582,0,0,1,.628-.512c6.246.616,13.608,1.628,21.4,2.687,19.622,2.687,41.872,5.734,47.281,2.268,4.525-2.9,7.63-7.235,7.9-11.05a99.393,99.393,0,0,0-1.407-18.726c-3.466-16.621-16.26-54.306-20.773-59.389-4.4-4.955-11.178-6.979-17.179-8.479a214.181,214.181,0,0,0-27.089-4.978,27.835,27.835,0,0,1-10.991,14.69c-1.384.942-3.059.128-4.4-.523-.256-.128-.512-.244-.744-.349a8.107,8.107,0,0,0-.965-.2c-2.326-.407-7.165-1.256-9.538-4.85a9.328,9.328,0,0,1-1.093-6.99,98.749,98.749,0,0,0-23.832,7.165c-3.35,1.477-7.095,3.4-9.538,6.49-2.187,2.78-3.233,6.362-4.152,9.514-5.281,18.11-10.166,36.592-14.527,54.934a.568.568,0,0,1-1.1-.268c4.362-18.366,9.258-36.871,14.539-54.992.954-3.257,2.024-6.944,4.35-9.91,2.594-3.292,6.49-5.3,9.968-6.827a100.118,100.118,0,0,1,24.937-7.374.564.564,0,0,1,.512.174.576.576,0,0,1,.14.523c-.663,2.815-.407,5.141.756,6.921,2.094,3.187,6.606,3.978,8.781,4.35a5.6,5.6,0,0,1,1.233.279c.256.116.523.244.791.372,1.186.582,2.419,1.175,3.257.6A26.8,26.8,0,0,0,582,261.086a.563.563,0,0,1,.617-.4,217.3,217.3,0,0,1,27.705,5.071c6.164,1.547,13.143,3.641,17.749,8.828,5.025,5.653,17.772,44.268,21.041,59.912a100.711,100.711,0,0,1,1.431,19.04c-.291,4.164-3.606,8.851-8.421,11.934C640.194,366.708,636.484,367.209,631.633,367.209Z" transform="translate(-502.044 -260.686)"/>
          </g>
          <g id="Group_52416" data-name="Group 52416" transform="translate(129.378 119.327)">
            <path id="Path_105776" data-name="Path 105776" d="M559.458,278.688Q555.847,296.57,552.7,314.6a23.575,23.575,0,0,0-.523,6.188,22.109,22.109,0,0,0,2.792,7.991,77.2,77.2,0,0,0,5.106,9.061,174.493,174.493,0,0,0,6.5-17.144c.628-13.306-3.71-26.251-4.059-39.569a6.031,6.031,0,0,0-.372-2.4C561.819,278,561.04,277.536,559.458,278.688Z" transform="translate(-551.559 -277.424)" fill="#37b7c1"/>
            <path id="Path_105777" data-name="Path 105777" d="M560.154,338.482a.568.568,0,0,1-.465-.244,77.3,77.3,0,0,1-5.153-9.119,22.641,22.641,0,0,1-2.85-8.2,25.02,25.02,0,0,1,.535-6.339c2.094-11.968,4.362-24.053,6.758-35.929a.539.539,0,0,1,.221-.349,2.982,2.982,0,0,1,2.419-.744,1.738,1.738,0,0,1,1.128,1,6.556,6.556,0,0,1,.419,2.57v.058a131.94,131.94,0,0,0,2.047,17.586c1.163,7.176,2.361,14.6,2.012,22.029a.8.8,0,0,1-.023.151,174.75,174.75,0,0,1-6.525,17.2.588.588,0,0,1-.465.337A.126.126,0,0,0,560.154,338.482Zm-.1-59.377c-2.373,11.794-4.629,23.8-6.711,35.673a23.978,23.978,0,0,0-.523,6.037,21.884,21.884,0,0,0,2.733,7.781,83.51,83.51,0,0,0,4.5,8.13c2.291-5.292,4.315-10.689,6.037-16.063.337-7.293-.849-14.62-2-21.715a131.575,131.575,0,0,1-2.059-17.749v-.058a5.518,5.518,0,0,0-.314-2.117c-.151-.314-.326-.361-.384-.372C561.166,278.616,560.771,278.616,560.05,279.1Z" transform="translate(-551.638 -277.503)"/>
          </g>
          <g id="Group_52417" data-name="Group 52417" transform="translate(141.846 141.315)">
            <path id="Path_105778" data-name="Path 105778" d="M562.93,354.868a.572.572,0,0,1-.547-.4.579.579,0,0,1,.372-.721c2.966-.954,4.176-3.361,4.013-8.06-.361-10.654-2.059-11.48-2.4-11.538a.57.57,0,0,1-.477-.593.577.577,0,0,1,.547-.535l1.838-.081c15.609-.686,33.253-1.466,44.268-2.8-1.838-5.723-3.582-10.968-5.28-16.039-1.791-5.35-3.641-10.887-5.571-16.947a.574.574,0,1,1,1.093-.349c1.931,6.048,3.78,11.585,5.571,16.935,1.768,5.269,3.582,10.724,5.5,16.714a.617.617,0,0,1-.058.477.594.594,0,0,1-.407.256c-11,1.4-29.089,2.187-45.036,2.9l-.349.012c.884,1.384,1.687,4.513,1.919,11.55.116,3.524-.314,7.746-4.8,9.177A.48.48,0,0,1,562.93,354.868Z" transform="translate(-562.358 -296.408)"/>
          </g>
          <g id="Group_52418" data-name="Group 52418" transform="translate(0 151.716)">
            <path id="Path_105779" data-name="Path 105779" d="M440.89,305.83l77.545.43,26.728,54.9-78.231.454Z" transform="translate(-440.325 -305.272)" fill="#fff"/>
            <path id="Path_105780" data-name="Path 105780" d="M467.011,362.261a.565.565,0,0,1-.512-.326l-26.042-55.771a.571.571,0,0,1,.035-.547.582.582,0,0,1,.477-.268h0l77.545.43a.565.565,0,0,1,.512.326L545.754,361a.6.6,0,0,1-.023.547.566.566,0,0,1-.477.268l-78.243.442ZM441.865,306.49l25.507,54.631,76.963-.442L518.153,306.92Z" transform="translate(-440.404 -305.35)"/>
          </g>
          <g id="Group_52419" data-name="Group 52419" transform="translate(43.145 174.037)">
            <path id="Path_105781" data-name="Path 105781" d="M483.887,325.066c-2.2-.221-4.606.372-5.5,2.4a5.471,5.471,0,0,0,1.419,6.048A7.059,7.059,0,0,0,486.016,335,4.817,4.817,0,0,0,489,333.185a4.193,4.193,0,0,0,.663-2.361C489.691,328.1,488.458,325.52,483.887,325.066Z" transform="translate(-477.419 -324.462)" fill="#fff"/>
            <path id="Path_105782" data-name="Path 105782" d="M484.444,335.834a7.355,7.355,0,0,1-4.943-1.814,6.032,6.032,0,0,1-1.559-6.7c.884-2,3.164-3.012,6.083-2.733,5.246.512,6.316,3.722,6.3,6.327a4.793,4.793,0,0,1-.768,2.675,5.375,5.375,0,0,1-3.338,2.047A8.427,8.427,0,0,1,484.444,335.834Zm-1.3-10.154c-1.268,0-3.35.291-4.152,2.094a4.87,4.87,0,0,0,1.291,5.4,6.416,6.416,0,0,0,5.7,1.349,4.179,4.179,0,0,0,2.64-1.582,3.688,3.688,0,0,0,.57-2.047c.023-3.14-1.7-4.827-5.269-5.187C483.734,325.7,483.467,325.68,483.141,325.68Z" transform="translate(-477.499 -324.541)"/>
          </g>
          <g id="Group_52420" data-name="Group 52420" transform="translate(132.718 113.332)">
            <path id="Path_105783" data-name="Path 105783" d="M562.026,273.421a3.776,3.776,0,0,0-3.617-.233c-1.675.7-3.094,1.675-3.408,3.466a8.962,8.962,0,0,0,1.256,3.059c.535.814,1.908,2.315,3.082,2.408a3.837,3.837,0,0,0,2.71-1.186c1.372-1.221,2.489-3.036,2.047-4.815A4.931,4.931,0,0,0,562.026,273.421Z" transform="translate(-554.431 -272.268)" fill="#fff"/>
            <path id="Path_105784" data-name="Path 105784" d="M559.616,282.783a1.718,1.718,0,0,1-.244-.012c-1.535-.128-3.059-1.966-3.513-2.664-.314-.477-1.477-2.687-1.338-3.466.4-2.268,2.326-3.315,3.757-3.9a4.311,4.311,0,0,1,4.176.291h0a5.421,5.421,0,0,1,2.291,3.024c.43,1.745-.407,3.757-2.222,5.374A4.444,4.444,0,0,1,559.616,282.783Zm.593-9.293a4.1,4.1,0,0,0-1.5.3c-1.884.779-2.838,1.721-3.071,3.047a10.478,10.478,0,0,0,1.175,2.652c.57.861,1.8,2.082,2.664,2.152a3.187,3.187,0,0,0,2.28-1.047c.558-.5,2.361-2.291,1.873-4.257a4.383,4.383,0,0,0-1.849-2.373h0A2.681,2.681,0,0,0,560.209,273.49Z" transform="translate(-554.51 -272.349)"/>
          </g>
          <g id="Group_52421" data-name="Group 52421" transform="translate(107.715 185.847)">
            <path id="Path_105785" data-name="Path 105785" d="M542.4,348.693a1.836,1.836,0,0,1-1.21-.5c-.919-.779-.326-2.2-.128-2.664a6.591,6.591,0,0,1,1.291-1.849,23.211,23.211,0,0,1,5.234-4.187h-.012a6.225,6.225,0,0,0-2.861.9,32.259,32.259,0,0,0-5.164,3.885c-.826.71-1.687,1.442-2.559,2.128a4.344,4.344,0,0,1-1.466.837,1.994,1.994,0,0,1-1.942-.407,2.049,2.049,0,0,1-.558-1.349,4.886,4.886,0,0,1,1.3-3.245c3.5-4.431,7.2-6.9,11.305-7.537a.571.571,0,0,1,.174,1.128c-3.815.593-7.269,2.931-10.6,7.118a3.984,3.984,0,0,0-1.058,2.466,1,1,0,0,0,.221.616.866.866,0,0,0,.826.128,3.394,3.394,0,0,0,1.082-.64c.861-.663,1.7-1.4,2.512-2.094a33.39,33.39,0,0,1,5.362-4.013c2.047-1.14,3.85-1.349,5.234-.6a.578.578,0,0,1,.3.512.55.55,0,0,1-.314.5,22.462,22.462,0,0,0-6.188,4.652,5.721,5.721,0,0,0-1.082,1.512c-.349.826-.326,1.233-.186,1.349.465.384.663.268,1.291-.2l.047-.035a44.8,44.8,0,0,1,7.607-5.2,3.537,3.537,0,0,1,3.175-.465c1.2.582,4.641,1.908,10.7,1.524a19.106,19.106,0,0,1,6.99.919.574.574,0,1,1-.349,1.093,18.152,18.152,0,0,0-6.572-.872c-6.327.4-9.991-1.012-11.271-1.64-.6-.3-1.454.081-2.128.442a43.562,43.562,0,0,0-7.444,5.083l-.07.047A2.527,2.527,0,0,1,542.4,348.693Z" transform="translate(-533.014 -334.694)"/>
          </g>
          <g id="Group_52422" data-name="Group 52422" transform="translate(104.452 183.785)">
            <path id="Path_105786" data-name="Path 105786" d="M532.223,348.366a1.659,1.659,0,0,1-.535-.081,2.446,2.446,0,0,1-1.466-2.268,8.731,8.731,0,0,1,1.768-5.222c2.792-4.176,5.676-6.816,8.572-7.839a.574.574,0,0,1,.384,1.082c-2.664.942-5.362,3.431-8,7.4a7.62,7.62,0,0,0-1.582,4.5c.035.5.233,1.128.675,1.268a.992.992,0,0,0,.791-.174,3.662,3.662,0,0,0,.814-.826.57.57,0,1,1,.884.721,4.852,4.852,0,0,1-1.07,1.058A2.287,2.287,0,0,1,532.223,348.366Z" transform="translate(-530.208 -332.922)"/>
          </g>
          <g id="Group_52423" data-name="Group 52423" transform="translate(102.169 177.285)">
            <path id="Path_105787" data-name="Path 105787" d="M530.182,347.033a2.487,2.487,0,0,1-1.407-.442c-1.407-.989.291-5.909,1.652-8.153,3.106-5.118,7.06-8.816,11.457-10.689,2.338-1.512,12.248,1.489,16.423,2.873a14.079,14.079,0,0,0,3.815.779c3.641.116,8.328.174,9.549-.012a.571.571,0,1,1,.174,1.128c-1.675.256-8.421.07-9.759.023a14.966,14.966,0,0,1-4.129-.837c-7.932-2.605-14.283-3.838-15.458-2.989a.364.364,0,0,1-.116.058c-4.129,1.756-8.026,5.4-10.98,10.247-1.617,2.675-2.3,6.153-1.942,6.653a1.186,1.186,0,0,0,1.233.093.569.569,0,0,1,.582.977A2.08,2.08,0,0,1,530.182,347.033Z" transform="translate(-528.245 -327.333)"/>
          </g>
          <g id="Group_52424" data-name="Group 52424" transform="translate(120.859 98.669)">
            <path id="Path_105788" data-name="Path 105788" d="M549.253,260.22c2.047,5.025,6.455,11.992,10.933,14.678-2.431,2.128-5.49,5.478-10.619,9.293-1.8-9.037-3.675-13.329-4.757-20.389C545.985,262.93,547.8,261.1,549.253,260.22Z" transform="translate(-544.233 -259.664)" fill="#37b7c1"/>
            <path id="Path_105789" data-name="Path 105789" d="M549.648,284.84a.659.659,0,0,1-.209-.035.555.555,0,0,1-.349-.419c-.837-4.21-1.71-7.444-2.477-10.294a88.633,88.633,0,0,1-2.291-10.119.582.582,0,0,1,.221-.547c.43-.326.965-.791,1.535-1.279a22.73,22.73,0,0,1,2.966-2.326.581.581,0,0,1,.826.279c2.14,5.257,6.5,11.887,10.7,14.411a.607.607,0,0,1,.279.442.565.565,0,0,1-.2.477c-.709.616-1.466,1.338-2.338,2.175A86,86,0,0,1,550,284.758.855.855,0,0,1,549.648,284.84Zm-4.141-20.715a87.77,87.77,0,0,0,2.21,9.665c.721,2.664,1.524,5.664,2.315,9.479a86.974,86.974,0,0,0,7.49-6.525c.663-.628,1.256-1.186,1.814-1.7-4.024-2.78-8.072-8.851-10.247-13.9A29.027,29.027,0,0,0,546.845,263C546.357,263.415,545.9,263.811,545.507,264.125Z" transform="translate(-544.314 -259.742)"/>
          </g>
          <g id="Group_52425" data-name="Group 52425" transform="translate(139.304 96.568)">
            <path id="Path_105790" data-name="Path 105790" d="M560.66,275.167c2.547,3.222,5.106,6.432,8.177,9.735,3.722-7.258,7.479-14.737,9.165-22.716-1.593-.733-5.048-3.024-6.641-3.757.465,1.7,1.407,3.222,1.175,3.757C572.4,262.536,564.638,271.434,560.66,275.167Z" transform="translate(-560.093 -257.855)" fill="#37b7c1"/>
            <path id="Path_105791" data-name="Path 105791" d="M568.916,285.553a.563.563,0,0,1-.419-.186c-3.082-3.315-5.688-6.595-8.2-9.77a.576.576,0,0,1,.058-.779c3.792-3.559,11.015-11.806,11.736-12.783a6.6,6.6,0,0,0-.465-1.338,17.337,17.337,0,0,1-.733-2.047.557.557,0,0,1,.186-.582.575.575,0,0,1,.6-.081c.826.384,2.059,1.128,3.373,1.908,1.233.733,2.5,1.5,3.268,1.849a.564.564,0,0,1,.314.64c-1.756,8.293-5.722,16.028-9.224,22.855a.562.562,0,0,1-.43.3A.148.148,0,0,1,568.916,285.553Zm-7.409-10.247c2.245,2.838,4.583,5.757,7.269,8.688,3.3-6.455,6.944-13.713,8.654-21.413-.8-.407-1.849-1.047-2.966-1.71-.7-.419-1.4-.837-2.024-1.2.081.2.163.4.233.593.419,1.012.686,1.687.465,2.222A168.919,168.919,0,0,1,561.507,275.306Z" transform="translate(-560.173 -257.935)"/>
          </g>
          <g id="Group_52426" data-name="Group 52426" transform="translate(99.869 141.293)">
            <path id="Path_105792" data-name="Path 105792" d="M539.972,335.169a.585.585,0,0,1-.57-.5,98.075,98.075,0,0,0-13.05-37.417.567.567,0,1,1,.965-.593,99.334,99.334,0,0,1,13.213,37.859.574.574,0,0,1-.489.64A.147.147,0,0,1,539.972,335.169Z" transform="translate(-526.268 -296.388)"/>
          </g>
          <g id="Group_52427" data-name="Group 52427" transform="translate(90.91 152.445)">
            <path id="Path_105793" data-name="Path 105793" d="M519.141,334.268a.651.651,0,0,1-.314-.093.579.579,0,0,1-.174-.791c4.815-7.456,10.829-17.272,14.678-27.042a.575.575,0,0,1,1.07.419c-3.885,9.863-9.945,19.738-14.783,27.24A.555.555,0,0,1,519.141,334.268Z" transform="translate(-518.565 -305.976)"/>
          </g>
          <g id="Group_52428" data-name="Group 52428" transform="translate(113.864 193.926)">
            <path id="Path_105794" data-name="Path 105794" d="M538.87,348.84h0a.563.563,0,0,1-.57-.57l.058-6.06a.571.571,0,0,1,.57-.57h.012a.571.571,0,0,1,.57.57l-.058,6.06A.605.605,0,0,1,538.87,348.84Z" transform="translate(-538.3 -341.64)"/>
          </g>
          <g id="Group_52429" data-name="Group 52429" transform="translate(151.081 56.571)">
            <path id="Path_105795" data-name="Path 105795" d="M570.87,228.645a.567.567,0,0,1-.14-.012.573.573,0,0,1-.419-.686c.384-1.57.547-2.419.861-3.943a.57.57,0,1,1,1.117.233c-.314,1.547-.477,2.4-.861,3.989A.586.586,0,0,1,570.87,228.645Z" transform="translate(-570.297 -223.548)"/>
          </g>
          <g id="Group_52430" data-name="Group 52430" transform="translate(189.908 174.781)">
            <path id="Path_105796" data-name="Path 105796" d="M604.25,326.541a.57.57,0,0,1-.023-1.14c2.652-.116,5.35-.186,8.014-.221a.571.571,0,0,1,.582.558.579.579,0,0,1-.558.582c-2.652.035-5.339.1-7.979.221Z" transform="translate(-603.68 -325.18)"/>
          </g>
          <g id="Group_52431" data-name="Group 52431" transform="translate(158.816 105.188)">
            <path id="Path_105797" data-name="Path 105797" d="M577.52,273.167a.476.476,0,0,1-.128-.012.575.575,0,0,1-.43-.686c.488-2.187.9-4.42,1.21-6.63a.569.569,0,1,1,1.128.151c-.314,2.245-.721,4.5-1.221,6.723A.571.571,0,0,1,577.52,273.167Z" transform="translate(-576.948 -265.347)"/>
          </g>
          <g id="Group_52432" data-name="Group 52432" transform="translate(163.525 104.688)">
            <path id="Path_105798" data-name="Path 105798" d="M581.559,269.945h-.047a.556.556,0,0,1-.512-.616l.349-3.9a.567.567,0,0,1,1.128.1l-.349,3.9A.578.578,0,0,1,581.559,269.945Z" transform="translate(-580.997 -264.917)"/>
          </g>
          <g id="Group_52433" data-name="Group 52433" transform="translate(158.401 36.568)">
            <path id="Path_105799" data-name="Path 105799" d="M577.16,213.573a.575.575,0,0,1-.186-1.117,5.992,5.992,0,0,0,3.885-5.536.571.571,0,0,1,.57-.57h0a.571.571,0,0,1,.57.57,7.193,7.193,0,0,1-4.641,6.618A.591.591,0,0,1,577.16,213.573Z" transform="translate(-576.592 -206.35)"/>
          </g>
          <g id="Group_52434" data-name="Group 52434" transform="translate(141.323 177.945)">
            <path id="Path_105800" data-name="Path 105800" d="M562.48,332.529h-.058a.582.582,0,0,1-.512-.628,10.435,10.435,0,0,1,.256-1.466,4.522,4.522,0,0,1,.663-1.582,2.219,2.219,0,0,1,1.7-.954h.012a.576.576,0,0,1,.57.558.564.564,0,0,1-.558.582,1.161,1.161,0,0,0-.814.489,3.133,3.133,0,0,0-.477,1.175,9.864,9.864,0,0,0-.233,1.326A.538.538,0,0,1,562.48,332.529Z" transform="translate(-561.909 -327.9)"/>
          </g>
          <g id="Group_52435" data-name="Group 52435" transform="translate(140.526 194.341)">
            <path id="Path_105801" data-name="Path 105801" d="M563.011,347.316a1.347,1.347,0,0,1-1.035-.535,2.292,2.292,0,0,1-.4-.814,7.992,7.992,0,0,1-.279-3.478.58.58,0,0,1,.64-.489.565.565,0,0,1,.489.64,6.793,6.793,0,0,0,.244,2.978,1.411,1.411,0,0,0,.2.442c.058.081.128.116.14.1a.586.586,0,0,1,.582.558.571.571,0,0,1-.558.582A.036.036,0,0,1,563.011,347.316Z" transform="translate(-561.223 -341.997)"/>
          </g>
          <g id="Group_52436" data-name="Group 52436" transform="translate(113.52 37.662)" opacity="0.129">
            <path id="Path_105802" data-name="Path 105802" d="M569.927,207.29c-.361.361-.733.7-1.117,1.035-.047.081-.116.2-.291.477a10.828,10.828,0,0,1-.861,1.07,11.138,11.138,0,0,1-3.3,2.268.8.8,0,0,0-.931-.465l-.186.035a.4.4,0,0,0-.1.012,16.8,16.8,0,0,1-2.163-.047l.233.035a9.166,9.166,0,0,1-2.129-.616c-.047-.023-.14-.058-.221-.1a.991.991,0,0,0-.547-.116.623.623,0,0,0-.128-.058.459.459,0,0,0-.023-.07c0-.012-.012-.035-.012-.047a2.035,2.035,0,0,0,.047-.233,1.05,1.05,0,0,0-1.1-1.128,1.231,1.231,0,0,0-1.093,1.14c-.128.174-.268.349-.407.523a24.307,24.307,0,0,1-1.942,1.687c-.128.1-.477.361-.535.407-.023.023-.058.035-.081.058a8.734,8.734,0,0,1-3.489,1.384h-.023a5.7,5.7,0,0,1-.9-.081c-.081-.023-.175-.058-.268-.081-.035-.023-.081-.047-.116-.07-.093-.07-.186-.14-.268-.209l-.07-.07a.635.635,0,0,1-.081-.1,2.05,2.05,0,0,1-.907-.43,1.907,1.907,0,0,1-.744-.651,2.532,2.532,0,0,1-.256-.5.166.166,0,0,1-.023-.07c-.012,0-.035-.047-.046-.07-.035-.07-.081-.128-.116-.2a6.107,6.107,0,0,1-.582-1.4h-.023a1.133,1.133,0,0,0-.989.465,3.282,3.282,0,0,1-.279.419c-.035.035-.058.07-.093.1l-.07.07h0c-.012.012-.023.023-.023.035-.326.244-.6.57-.942.8-.128.093-.267.174-.407.268-.035.023-.081.047-.128.081-.023.012-.035.023-.058.035a13.233,13.233,0,0,1-2.187,1.093c-.523.268-1.21.314-1.617.756a1.172,1.172,0,0,0,1.361,1.849,14.179,14.179,0,0,0,4.42-2.443c.209-.174.419-.372.616-.57a8.025,8.025,0,0,0,2.082,2.652,5.117,5.117,0,0,0,4.7.291,10.9,10.9,0,0,0,2.861-1.57,15.93,15.93,0,0,0,2.28-2.059,5.2,5.2,0,0,0,1.268,1.489,4.283,4.283,0,0,0,2.512.861.359.359,0,0,0-.116.012,2.062,2.062,0,0,0,.268.012,9.486,9.486,0,0,0,3.315-.64,12.982,12.982,0,0,0,4.292-2.431,9.167,9.167,0,0,0,1.966-2.419c.1-.233.023-.023-.047.093.209-.337.4-.686.57-1.035a1.048,1.048,0,0,0,.186-.663A.905.905,0,0,0,569.927,207.29Z" transform="translate(-538.004 -207.29)"/>
          </g>
          <g id="Group_52437" data-name="Group 52437" transform="translate(152.707 47.834)" opacity="0.129">
            <path id="Path_105803" data-name="Path 105803" d="M580.645,216.518c-.291-.686-1.024-.477-1.593-.349-.849.174-1.721.233-2.582.384a17.416,17.416,0,0,1-1.9.314h.023c-.2.012-.349.035,0,0-.337.047-.686.012-1.024.07a.932.932,0,0,0-.314-.419,1.029,1.029,0,0,0-1.547,1.058,16.591,16.591,0,0,1,.291,2c-.058.989-.093,2.559,1.245,2.338a1.243,1.243,0,0,0,.651-.43c-.035.081.6-.465.768-.558.675-.5,1.942-1.268,3.2-2.024.651-.372,1.314-.721,1.989-1.024.058-.023.1-.035.163-.058s.116-.047.186-.07A.987.987,0,0,0,580.645,216.518Z" transform="translate(-571.695 -216.036)"/>
          </g>
          <g id="Group_52438" data-name="Group 52438" transform="translate(125.201 81.957)" opacity="0.129">
            <path id="Path_105804" data-name="Path 105804" d="M572.627,259.583c-.326-.977-.663-1.942-.942-2.931-.616-2.082-1.163-4.164-1.628-6.281-.582-1.547-1.14-3.105-1.593-4.687a.716.716,0,0,1-.023-.209.979.979,0,0,0-.931.035.452.452,0,0,1-.023.349,6.9,6.9,0,0,1-.709.942c-.233.279-.489.535-.745.791-.523.523-1.07,1-1.617,1.489a.694.694,0,0,1-.174.1.994.994,0,0,0,.023.488c-.035.023-.07.035-.1.058-.233.093-.919.535-2.733,1.326-.523.209-1.047.43-1.582.628a1.277,1.277,0,0,0-.593,0l.3-.035c-.128.012-.244.035-.372.047,0,0-.093.012-.256.023-.523.023-1.047.035-1.57.047a11.03,11.03,0,0,1-5.153.744,1.052,1.052,0,0,0-.488.407c-.361-.1-.721-.209-1.082-.326-.023-.012-.058-.012-.081-.023-.14.012-.279.023-.419.047a.4.4,0,0,1-.43-.314,1.753,1.753,0,0,0-.814-.058,1.1,1.1,0,0,0,.047,2.14c4.734,1.57,13.783,4.559,17.074,5.5a15.318,15.318,0,0,0,3.478.663c-.1,0-.221-.012-.326-.012.1.012.2.035.3.047a3.112,3.112,0,0,1,.407.047c.314.14.64.268.954.4a7.637,7.637,0,0,0,.919.268.736.736,0,0,0,.884.1C573.313,260.955,572.79,260.153,572.627,259.583Z" transform="translate(-548.047 -245.373)"/>
          </g>
          <g id="Group_52439" data-name="Group 52439" transform="translate(136.299 122.492)" opacity="0.129">
            <path id="Path_105805" data-name="Path 105805" d="M559.94,281.08a2.44,2.44,0,0,0-1.117-.686,1.093,1.093,0,0,0-.7,2.024,12.6,12.6,0,0,1,1.4,1.07c.267.279.523.663.954.663a1.076,1.076,0,0,0,1.186-1.2c.058-.954-.07-1.082.1-1.593A.927.927,0,1,0,559.94,281.08Z" transform="translate(-557.589 -280.224)"/>
          </g>
          <g id="Group_52440" data-name="Group 52440" transform="translate(140.976 118.052)" opacity="0.129">
            <path id="Path_105806" data-name="Path 105806" d="M568.251,281.2c-.267-.442-.837-.686-1.186-1.07a15.91,15.91,0,0,1-2.024-2.163c-.2-.268-.419-.535-.593-.826a1.219,1.219,0,0,0-.721-.7.968.968,0,0,0-1.082,1.407c.1.163.209.314.326.477a.7.7,0,0,0-.268-.07.973.973,0,0,0-.617,1.8c1.082.6,2.14,1.256,3.187,1.908a10.523,10.523,0,0,0,2.338,1.07A1,1,0,0,0,568.251,281.2Z" transform="translate(-561.61 -276.406)"/>
          </g>
          <g id="Group_52441" data-name="Group 52441" transform="translate(126.775 117.788)" opacity="0.129">
            <path id="Path_105807" data-name="Path 105807" d="M557.065,278.471c-.256-.465-.477-.942-.756-1.4-.14-.233-.209-.523-.454-.675a.981.981,0,0,0-1.535.454c-.035,0-.07.012-.093.012-.407.1-.663.477-.942.768-.465.5-.419.6-.477.768l-.012.012a1.008,1.008,0,0,0-.151.372q-.628.244-1.221.523a5.7,5.7,0,0,0-1.814.977.956.956,0,0,0,1.233,1.407,27.009,27.009,0,0,1,2.629-1.093c.686-.244,1.419-.326,2.117-.5a1.272,1.272,0,0,0,.454-.221A.948.948,0,0,0,557.065,278.471Z" transform="translate(-549.4 -276.18)"/>
          </g>
          <g id="Group_52442" data-name="Group 52442" transform="translate(140.845 178.232)" opacity="0.129">
            <path id="Path_105808" data-name="Path 105808" d="M634.253,349.761a24.765,24.765,0,0,1-3.734,2.07,10.505,10.505,0,0,1-5.595,1.5,179.423,179.423,0,0,1-18.831-1.442c-3.129-.326-5.781-.326-7.944-.814-4.955-1.047-9.9-2.14-14.911-2.919-4.013-.651-8.049-.989-12.085-1.4-.919-.128-1.128-.128-2.873-.43a8.086,8.086,0,0,0-1.814-.233,1.828,1.828,0,0,0-.268.047c.023-.035.035-.07.058-.1a13.141,13.141,0,0,0,1.151-4.978,55.467,55.467,0,0,0-.314-6.665,10.781,10.781,0,0,0-.64-3.152,10.194,10.194,0,0,0-.942-2.047c-.256-.407-.512-.884-1.024-1a1.258,1.258,0,0,0-1.407,1.838.011.011,0,0,0,.012.012c-.128.349-.407.7-.337,1.082a.8.8,0,0,0,1.186.593,14.456,14.456,0,0,1,.512,1.989,46,46,0,0,1,.326,4.734c-.023,1.093-.012,2.2-.116,3.292a26.355,26.355,0,0,1-.791,3.524.783.783,0,0,0-.081-.128c-.221-.268-.407-.628-.756-.733a1.107,1.107,0,0,0-1.21,1.8c.07.07.163.186.221.256.023.035.035.058.058.093,0,.012.012.035.012.047,0,.116,0,.244-.012.361v.012a1.741,1.741,0,0,0-.023.244.974.974,0,0,0,.116.628.879.879,0,0,0,.384.361,1.064,1.064,0,0,0,1.268.686c.442-.1.651-.535.954-.826.116-.128.233-.256.337-.4a1.485,1.485,0,0,0,1.117,1.454c3.513.721,7.072,1.058,10.631,1.431,1.559.186,7.874,1.163,11.038,1.814,3.71.616,7.4,1.4,11.131,1.919,2.419.268,4.862.174,7.281.454,1.338.14,2.664.268,4,.442a79.936,79.936,0,0,0,10.805.744c1.151.023,2.3.093,3.454.081.279,0,1.012-.081,1.361-.116h-.023c.081-.012.163-.012.233-.023,3.187-.244,5.8-2.222,8.491-3.757.151-.093.3-.2.442-.3.151-.128.628-.477.2-.163a1.155,1.155,0,0,0,.547-.686A1.093,1.093,0,0,0,634.253,349.761Z" transform="translate(-561.497 -328.147)"/>
          </g>
          <g id="Group_52446" data-name="Group 52446" transform="translate(177.881 141.542)">
            <g id="Group_52443" data-name="Group 52443" transform="translate(6.735 33.455)" opacity="0.129">
              <path id="Path_105809" data-name="Path 105809" d="M599.13,325.371Z" transform="translate(-599.13 -325.366)"/>
            </g>
            <g id="Group_52444" data-name="Group 52444" opacity="0.129">
              <path id="Path_105810" data-name="Path 105810" d="M606.088,328.329c-.081-.151-.151-.3-.233-.454-.093-.221-.233-.582-.3-.744-1.279-3.408-1.977-4.815-3.106-8.025-.023-.07-.035-.14-.058-.209h-.012a1.431,1.431,0,0,0-1.082-1.07c-.465-1.919-1-3.815-1.535-5.723-1.431-4.8-2.28-9.747-3.78-14.527a1.345,1.345,0,0,0-2.594.709c1.256,4.338,1.512,8.142,2.175,11.585.267,1.64,1.2,5.839,1.849,8.909.43,2.152.768,4.327,1.256,6.467a31.631,31.631,0,0,0,1.419,4.839c0-.012-.012-.023-.023-.035a2.09,2.09,0,0,0,2.861.919,1.875,1.875,0,0,0,.535-.454,1.671,1.671,0,0,0,3-.442A2.237,2.237,0,0,0,606.088,328.329Z" transform="translate(-593.34 -296.602)"/>
            </g>
            <g id="Group_52445" data-name="Group 52445" transform="translate(6.569 33.046)" opacity="0.129">
              <path id="Path_105811" data-name="Path 105811" d="M598.99,325.021a1.673,1.673,0,0,0,.163.4C599.1,325.289,598.967,324.963,598.99,325.021Z" transform="translate(-598.988 -325.014)"/>
            </g>
          </g>
          <g id="Group_52447" data-name="Group 52447" transform="translate(89.999 151.773)" opacity="0.129">
            <path id="Path_105812" data-name="Path 105812" d="M533.935,306.552a1.341,1.341,0,0,0-2.268-.768,2.9,2.9,0,0,0-.547,1.338c-.267.919-.593,1.814-.93,2.71-1.559,4.455-4.629,9.386-7.7,14.109-1.117,1.687-2.373,3.28-3.559,4.92-.372.6-1.035,1.117-1.128,1.849a1.44,1.44,0,0,0,2.664.919c1.454-2.07,3.047-4.036,4.443-6.141,1.361-1.966,2.524-4.059,3.7-6.141a48.334,48.334,0,0,0,4.036-8.56c.337-.919.651-1.849.954-2.78A3.1,3.1,0,0,0,533.935,306.552Z" transform="translate(-517.782 -305.399)"/>
          </g>
        </g>
      </g>
      <g id="Group_52450" data-name="Group 52450" transform="translate(618.415 155.95)">
        <path id="Path_105813" data-name="Path 105813" d="M608.69,142.69a3.21,3.21,0,1,1,3.21,3.21A3.209,3.209,0,0,1,608.69,142.69Z" transform="translate(-608.12 -138.922)" fill="#fff"/>
        <path id="Path_105814" data-name="Path 105814" d="M611.98,146.56a3.78,3.78,0,1,1,3.78-3.78A3.787,3.787,0,0,1,611.98,146.56Zm0-6.432a2.64,2.64,0,1,0,2.64,2.64A2.646,2.646,0,0,0,611.98,140.128Z" transform="translate(-608.2 -139)"/>
      </g>
      <g id="Group_52451" data-name="Group 52451" transform="translate(445.763 104.738)">
        <path id="Path_105815" data-name="Path 105815" d="M460.24,98.67a3.21,3.21,0,1,1,3.21,3.21A3.209,3.209,0,0,1,460.24,98.67Z" transform="translate(-459.682 -94.89)" fill="#fff"/>
        <path id="Path_105816" data-name="Path 105816" d="M463.54,102.53a3.78,3.78,0,1,1,3.78-3.78A3.787,3.787,0,0,1,463.54,102.53Zm0-6.42a2.64,2.64,0,1,0,2.64,2.64A2.646,2.646,0,0,0,463.54,96.11Z" transform="translate(-459.76 -94.97)"/>
      </g>
      <g id="Group_52452" data-name="Group 52452" transform="translate(694.634 416.72)">
        <path id="Path_105817" data-name="Path 105817" d="M674.21,366.9a3.21,3.21,0,1,1,3.21,3.21A3.209,3.209,0,0,1,674.21,366.9Z" transform="translate(-673.652 -363.12)" fill="#fff"/>
        <path id="Path_105818" data-name="Path 105818" d="M677.51,370.76a3.78,3.78,0,1,1,3.78-3.78A3.787,3.787,0,0,1,677.51,370.76Zm0-6.432a2.64,2.64,0,1,0,2.64,2.64A2.646,2.646,0,0,0,677.51,364.328Z" transform="translate(-673.73 -363.2)"/>
      </g>
      <g id="Group_52453" data-name="Group 52453" transform="translate(0 194.868)">
        <path id="Path_105819" data-name="Path 105819" d="M77,176.16a3.21,3.21,0,1,1,3.21,3.21A3.209,3.209,0,0,1,77,176.16Z" transform="translate(-76.43 -172.38)" fill="#fff"/>
        <path id="Path_105820" data-name="Path 105820" d="M80.29,180.02a3.78,3.78,0,1,1,3.78-3.78A3.787,3.787,0,0,1,80.29,180.02Zm0-6.432a2.64,2.64,0,1,0,2.64,2.64A2.646,2.646,0,0,0,80.29,173.588Z" transform="translate(-76.51 -172.46)"/>
      </g>
      <g id="Group_52454" data-name="Group 52454" transform="translate(803.106 228.121)">
        <path id="Path_105821" data-name="Path 105821" d="M767.47,204.75a3.21,3.21,0,1,1,3.21,3.21A3.209,3.209,0,0,1,767.47,204.75Z" transform="translate(-766.912 -200.97)" fill="#fff"/>
        <path id="Path_105822" data-name="Path 105822" d="M770.77,208.61a3.78,3.78,0,1,1,3.78-3.78A3.788,3.788,0,0,1,770.77,208.61Zm0-6.432a2.64,2.64,0,1,0,2.64,2.64A2.646,2.646,0,0,0,770.77,202.178Z" transform="translate(-766.99 -201.05)"/>
      </g>
      <g id="Group_52455" data-name="Group 52455" transform="translate(236.112 341.711)">
        <path id="Path_105823" data-name="Path 105823" d="M279.99,302.41a3.21,3.21,0,1,1,3.21,3.21A3.209,3.209,0,0,1,279.99,302.41Z" transform="translate(-279.432 -298.63)" fill="#fff"/>
        <path id="Path_105824" data-name="Path 105824" d="M283.29,306.27a3.78,3.78,0,1,1,3.78-3.78A3.787,3.787,0,0,1,283.29,306.27Zm0-6.42a2.64,2.64,0,1,0,2.64,2.64A2.646,2.646,0,0,0,283.29,299.85Z" transform="translate(-279.51 -298.71)"/>
      </g>
      <g id="Group_52456" data-name="Group 52456" transform="translate(80.011 79.603)">
        <circle id="Ellipse_121" data-name="Ellipse 121" cx="5.42" cy="5.42" r="5.42" transform="translate(0.57 0.57)" fill="#fff"/>
        <path id="Path_105825" data-name="Path 105825" d="M151.29,85.34a5.99,5.99,0,1,1,5.99-5.99A6,6,0,0,1,151.29,85.34Zm0-10.84a4.85,4.85,0,1,0,4.85,4.85A4.855,4.855,0,0,0,151.29,74.5Z" transform="translate(-145.3 -73.36)"/>
      </g>
      <g id="Group_52457" data-name="Group 52457" transform="translate(689.772 305.108)">
        <circle id="Ellipse_122" data-name="Ellipse 122" cx="5.42" cy="5.42" r="5.42" transform="translate(0.57 0.57)" fill="#fff"/>
        <path id="Path_105826" data-name="Path 105826" d="M675.54,279.22a5.99,5.99,0,1,1,5.99-5.99A6,6,0,0,1,675.54,279.22Zm0-10.84a4.85,4.85,0,1,0,4.85,4.85A4.855,4.855,0,0,0,675.54,268.38Z" transform="translate(-669.55 -267.24)"/>
      </g>
      <g id="Group_52458" data-name="Group 52458" transform="translate(333.674 348.771)">
        <circle id="Ellipse_123" data-name="Ellipse 123" cx="5.42" cy="5.42" r="5.42" transform="translate(0.57 0.57)" fill="#fff"/>
        <path id="Path_105827" data-name="Path 105827" d="M369.38,316.76a5.99,5.99,0,1,1,5.99-5.99A6,6,0,0,1,369.38,316.76Zm0-10.84a4.85,4.85,0,1,0,4.85,4.85A4.855,4.855,0,0,0,369.38,305.92Z" transform="translate(-363.39 -304.78)"/>
      </g>
    </g>
    <g id="Group_52460" data-name="Group 52460" transform="translate(239.555 65.844)">
      <circle id="Ellipse_124" data-name="Ellipse 124" cx="4.187" cy="4.187" r="4.187" transform="translate(0.663 0.663)" fill="#fff"/>
      <path id="Path_105828" data-name="Path 105828" d="M216.69,62.15A4.85,4.85,0,1,1,221.54,67,4.855,4.855,0,0,1,216.69,62.15Zm1.338,0a3.513,3.513,0,1,0,3.513-3.513A3.517,3.517,0,0,0,218.028,62.15Z" transform="translate(-216.69 -57.3)"/>
    </g>
    <g id="Group_52515" data-name="Group 52515" transform="translate(218.212 21.974)">
      <g id="Group_52461" data-name="Group 52461" transform="translate(2.994 58.919)">
        <path id="Path_105829" data-name="Path 105829" d="M255.437,70.855c-.233,9-5.932,18.121-14.19,20.948-4.49,1.547-9.317,1.245-13.911,2.408s-9.363,4.664-9.631,9.572a20.9,20.9,0,0,1-.128,3.722c-.791,3.268-4.606,4.362-7.584,5.676-15.76,6.932-7.688,24.146,8.328,29.973,7.153,2.605,10.294,3.047,17.924,1.954,7.525-1.093,14.527-5.408,19.959-11.131s9.421-12.771,12.62-20.075c3.675-8.409,6.42-17.714,4.827-26.624S264.974,70.215,255.437,70.855Z" transform="translate(-200.822 -70.143)" fill="#745483"/>
        <path id="Path_105830" data-name="Path 105830" d="M218.193,143.865c-9.759-3.548-17.028-11.573-17.272-19.087-.174-5.211,2.989-9.514,8.909-12.12.419-.186.861-.372,1.3-.547,2.605-1.082,5.292-2.187,5.9-4.664a8.436,8.436,0,0,0,.116-2.187c-.012-.465-.035-.93,0-1.419.291-5.292,5.455-8.991,10.131-10.177a45.164,45.164,0,0,1,6.281-.989,35.28,35.28,0,0,0,7.584-1.407c7.723-2.652,13.492-11.212,13.736-20.343a.669.669,0,0,1,.616-.651c10.189-.686,17.354,8.223,18.912,16.958,1.372,7.688-.174,16.272-4.873,27.007-3.745,8.537-7.909,15.167-12.748,20.261-5.967,6.269-13.19,10.294-20.343,11.329a46.587,46.587,0,0,1-6.572.57C225.963,146.413,222.939,145.587,218.193,143.865Zm37.976-72.287c-.5,9.433-6.56,18.179-14.609,20.948a36.409,36.409,0,0,1-7.863,1.466,45.166,45.166,0,0,0-6.095.954c-4.222,1.07-8.886,4.338-9.13,8.956-.023.419-.012.849,0,1.3a9.5,9.5,0,0,1-.151,2.547c-.756,3.14-3.908,4.443-6.676,5.583-.43.174-.861.361-1.279.535-5.467,2.408-8.27,6.153-8.107,10.852.233,6.99,7.13,14.5,16.4,17.877,6.909,2.512,9.875,3.036,17.6,1.919,6.862-.989,13.818-4.873,19.564-10.933,4.734-4.978,8.816-11.48,12.492-19.878,4.594-10.48,6.106-18.819,4.78-26.24-1.407-7.874-7.63-15.9-16.516-15.9C256.436,71.578,256.3,71.578,256.169,71.578Z" transform="translate(-200.914 -70.238)"/>
      </g>
      <g id="Group_52462" data-name="Group 52462" transform="translate(74.434 60.044)">
        <path id="Path_105831" data-name="Path 105831" d="M285.965,72.618c1.524-1.78,5.385-.523,5.281,1.721A23.664,23.664,0,0,0,295.9,90.46c2.024,2.838,4.734,5.42,6.5,8.34a22.247,22.247,0,0,1,2.873,10.9c.279,6.909-1.268,14-6.711,18.935s-15.516,7.06-23.739,3.536a19.483,19.483,0,0,1-11.852-15.783c-.523-6.083,1.9-11.782,4.548-17.214C272.519,88.983,278.812,80.993,285.965,72.618Z" transform="translate(-262.243 -71.113)" fill="#745483"/>
        <path id="Path_105832" data-name="Path 105832" d="M274.658,132.891a20.119,20.119,0,0,1-12.248-16.33c-.547-6.351,1.977-12.166,4.618-17.563,4.757-9.735,10.608-17.447,18.517-26.717h0a3.766,3.766,0,0,1,4.222-.756A3.12,3.12,0,0,1,292,74.467a23.079,23.079,0,0,0,4.525,15.714c.837,1.163,1.814,2.326,2.757,3.443a39.2,39.2,0,0,1,3.768,4.955,22.857,22.857,0,0,1,2.978,11.224c.337,8.433-1.989,14.981-6.932,19.459-3.9,3.524-9.642,5.432-15.353,5.432A23.657,23.657,0,0,1,274.658,132.891Zm11.9-59.749h0c-7.839,9.189-13.643,16.819-18.342,26.438-2.559,5.234-5.013,10.852-4.49,16.865a18.768,18.768,0,0,0,11.445,15.225c8.491,3.641,18.2.954,23.03-3.42,4.629-4.2,6.816-10.4,6.49-18.412a21.507,21.507,0,0,0-2.78-10.584,38.473,38.473,0,0,0-3.641-4.78c-.965-1.14-1.954-2.315-2.826-3.524a24.242,24.242,0,0,1-4.78-16.539c.035-.8-.7-1.372-1.4-1.652a3.366,3.366,0,0,0-1.186-.233A1.936,1.936,0,0,0,286.557,73.141Z" transform="translate(-262.335 -71.206)"/>
      </g>
      <g id="Group_52463" data-name="Group 52463" transform="translate(63.702 85.813)">
        <path id="Path_105833" data-name="Path 105833" d="M272.474,117.367a151.206,151.206,0,0,1,1.663-20.285,28.751,28.751,0,0,0-8.223-2.954,4.815,4.815,0,0,0-3.768.372,4.751,4.751,0,0,0-1.326,1.919q-3.4,7.31-6.793,14.609a2.029,2.029,0,0,0,.489,2.757A15.642,15.642,0,0,0,272.474,117.367Z" transform="translate(-253.014 -93.268)" fill="#fff"/>
        <path id="Path_105834" data-name="Path 105834" d="M254.111,114.319a3.242,3.242,0,0,1-1-2,3.02,3.02,0,0,1,.407-1.477l6.793-14.609a5.28,5.28,0,0,1,1.535-2.175c1.268-.93,2.954-.744,4.292-.489a29.551,29.551,0,0,1,8.409,3.012.64.64,0,0,1,.337.675,150.339,150.339,0,0,0-1.652,20.192.682.682,0,0,1-.384.6,15.626,15.626,0,0,1-6.734,1.5A16.117,16.117,0,0,1,254.111,114.319Zm19.4-16.772a27.8,27.8,0,0,0-7.63-2.664c-1.07-.209-2.4-.372-3.245.256A4.286,4.286,0,0,0,261.52,96.8l-6.793,14.609a1.414,1.414,0,0,0,.372,2.035,15.132,15.132,0,0,0,16.807,3.606A150.2,150.2,0,0,1,273.511,97.547Z" transform="translate(-253.109 -93.361)"/>
      </g>
      <g id="Group_52464" data-name="Group 52464" transform="translate(2.983 101.154)">
        <path id="Path_105835" data-name="Path 105835" d="M201.027,169.2c2.9-11.887,15.167-41.372,25.426-51.433,7.746-7.583,25.74-10.48,36.975-11.212,1.9,4.7,7.328,9.9,12.213,9.351a8.953,8.953,0,0,0,6.513-4.839c8.758,4.443,17.7,9.037,24.542,16.342,9.782,10.445,14.306,27.217,18.389,41.907-9.712-.407-18.505.582-28.229.174-5.2-.221-11.573-.733-16.784-.733C263.2,168.765,197.7,182.885,201.027,169.2Z" transform="translate(-200.905 -106.55)" fill="#fff"/>
      </g>
      <g id="Group_52466" data-name="Group 52466" transform="translate(0 183.455)">
        <g id="Group_52465" data-name="Group 52465" transform="translate(0 0)" opacity="0.129">
          <path id="Path_105836" data-name="Path 105836" d="M198.34,177.868c2.652.035,5.315.058,7.967.151,5.269.14,10.549-.163,15.807-.4,7.037.035,14.062-.151,21.087-.314,6.4.023,12.794.1,19.191.14a172.64,172.64,0,0,1-18.947,7.851,172.343,172.343,0,0,1-17.528,4.711c-4.722.826-7.386,1.454-12.515,1.093-3.3-.547-9.91-2.85-12.434-5.9a15.914,15.914,0,0,1-2.245-4.885C198.48,179,198.433,178.438,198.34,177.868Z" transform="translate(-198.34 -177.31)"/>
        </g>
      </g>
      <g id="Group_52467" data-name="Group 52467" transform="translate(54.932 37.144)">
        <path id="Path_105837" data-name="Path 105837" d="M300.7,68.169c-1.884,5.746-4.234,11.7-3.815,17.842.233,3.35-2.9,19.6-16.807,21.773a25.762,25.762,0,0,1-21.366-6.444c-4.257-3.815-8.374-13.946-5.536-22.692-4.176.361-7.6-3.059-6.979-6.641.361-2.059,3.117-4.21,5.49-3.652,1.838.442,2.059.5,3.268,1.838a55.5,55.5,0,0,0,3.978-13.062c5.443-4.117,13.155-5.3,20.587-5.036a27.064,27.064,0,0,1,7.328,1.093C293.632,55.375,302.646,62.272,300.7,68.169Z" transform="translate(-245.477 -51.429)" fill="#fff"/>
        <path id="Path_105838" data-name="Path 105838" d="M258.365,101.93c-4.187-3.757-8.444-13.515-5.99-22.506a7.369,7.369,0,0,1-5.141-2.349,6,6,0,0,1-1.582-5.083,5.377,5.377,0,0,1,2.431-3.35,5.738,5.738,0,0,1,6.769.477,54.3,54.3,0,0,0,3.536-11.98.643.643,0,0,1,.256-.419c6.176-4.676,14.841-5.4,21.017-5.164a28.675,28.675,0,0,1,7.5,1.117c4.839,1.547,11.271,5.7,13.632,10.34a6.954,6.954,0,0,1,.64,5.467c-.233.7-.465,1.407-.7,2.105-1.687,5.025-3.443,10.212-3.082,15.481.279,4.141-3.338,20.273-17.365,22.483a26.688,26.688,0,0,1-4.176.326A26.366,26.366,0,0,1,258.365,101.93Zm1.268-44.315a55.891,55.891,0,0,1-3.978,12.957.667.667,0,0,1-.5.4.691.691,0,0,1-.6-.209c-1.082-1.2-1.151-1.221-2.931-1.64a3.678,3.678,0,0,0-2.826.64,4.119,4.119,0,0,0-1.849,2.466,4.666,4.666,0,0,0,1.256,3.955,6.114,6.114,0,0,0,5,1.908.664.664,0,0,1,.7.861c-2.791,8.584,1.4,18.459,5.35,21.994a24.941,24.941,0,0,0,20.82,6.292c14.027-2.2,16.411-18.784,16.249-21.076-.384-5.536,1.407-10.852,3.14-16,.233-.7.477-1.407.7-2.094h0a5.7,5.7,0,0,0-.558-4.443c-2.21-4.327-8.27-8.212-12.852-9.677a27.04,27.04,0,0,0-7.153-1.058q-.942-.035-1.954-.035C271.985,52.835,264.866,53.765,259.632,57.615Z" transform="translate(-245.568 -51.517)"/>
      </g>
      <g id="Group_52468" data-name="Group 52468" transform="translate(62.87)">
        <circle id="Ellipse_125" data-name="Ellipse 125" cx="15.26" cy="15.26" r="15.26" transform="translate(0 9.037) rotate(-17.223)" fill="#745483"/>
        <path id="Path_105839" data-name="Path 105839" d="M263.672,52.366A15.952,15.952,0,0,1,256.9,30.872h0a15.935,15.935,0,1,1,14.109,23.286A15.717,15.717,0,0,1,263.672,52.366Zm-5.583-20.878a14.6,14.6,0,1,0,12.969-7.851A14.609,14.609,0,0,0,258.089,31.488Z" transform="translate(-251.951 -19.138)"/>
      </g>
      <g id="Group_52469" data-name="Group 52469" transform="translate(58.004 24.69)">
        <path id="Path_105840" data-name="Path 105840" d="M254.829,72.217A55.629,55.629,0,0,0,269.508,56c10.456,12.934,23.7,16.342,36.731,20.634a13.212,13.212,0,0,0,1.338-6.909c-.326-5.9-1.466-11.329-7.921-17.679-4.525-4.455-11.247-8.793-17.447-10.142-6.164-1.338-12.376-.058-17.889,2.21a26.875,26.875,0,0,0-11.794,10.247c-2.4,3.873-4,11.038-3.722,16a3.99,3.99,0,0,1,3.233-.07A9.325,9.325,0,0,1,254.829,72.217Z" transform="translate(-248.118 -40.719)" fill="#745483"/>
        <path id="Path_105841" data-name="Path 105841" d="M306.121,77.367c-1.1-.361-2.222-.721-3.326-1.082-11.573-3.745-23.53-7.607-33.114-19.029a56.416,56.416,0,0,1-14.364,15.6.668.668,0,0,1-.849-.047,8.409,8.409,0,0,0-2.547-1.768,3.33,3.33,0,0,0-2.733.047.645.645,0,0,1-.616-.035.681.681,0,0,1-.326-.535c-.3-5.246,1.384-12.445,3.815-16.388a27.4,27.4,0,0,1,12.1-10.515c6.56-2.7,12.713-3.454,18.284-2.245,6.886,1.5,13.7,6.316,17.772,10.317,6.269,6.164,7.758,11.5,8.119,18.121a13.977,13.977,0,0,1-1.407,7.246.677.677,0,0,1-.593.361A1.352,1.352,0,0,1,306.121,77.367ZM264.668,44.823a26.444,26.444,0,0,0-11.48,9.98c-2.14,3.466-3.71,9.875-3.652,14.725a4.8,4.8,0,0,1,2.826.233,8.764,8.764,0,0,1,2.594,1.675,54.741,54.741,0,0,0,14.062-15.69.661.661,0,0,1,.523-.326.683.683,0,0,1,.57.244c9.433,11.678,20.924,15.4,33.091,19.343.93.3,1.861.6,2.78.907a12.892,12.892,0,0,0,1.012-6.048c-.291-5.164-1.117-10.747-7.723-17.249-3.943-3.873-10.515-8.526-17.121-9.968a23.834,23.834,0,0,0-5.025-.523A33.01,33.01,0,0,0,264.668,44.823Z" transform="translate(-248.21 -40.809)"/>
      </g>
      <g id="Group_52470" data-name="Group 52470" transform="translate(75.708 79.137)">
        <path id="Path_105842" data-name="Path 105842" d="M270.048,94.482a4.245,4.245,0,0,0,2.07-.523.667.667,0,1,0-.651-1.163,3.783,3.783,0,0,1-3.745-.4,7.231,7.231,0,0,1-2.978-4.28.667.667,0,0,0-1.291.337,8.54,8.54,0,0,0,3.536,5.06A5.726,5.726,0,0,0,270.048,94.482Z" transform="translate(-263.431 -87.621)"/>
      </g>
      <g id="Group_52471" data-name="Group 52471" transform="translate(78.377 62.058)">
        <path id="Path_105843" data-name="Path 105843" d="M265.789,73.871a1.444,1.444,0,1,1,.954,1.745A1.405,1.405,0,0,1,265.789,73.871Z" transform="translate(-265.726 -72.937)"/>
      </g>
      <g id="Group_52472" data-name="Group 52472" transform="translate(100.011 67.303)">
        <path id="Path_105844" data-name="Path 105844" d="M284.389,78.381a1.444,1.444,0,1,1,.954,1.745A1.406,1.406,0,0,1,284.389,78.381Z" transform="translate(-284.326 -77.447)"/>
      </g>
      <g id="Group_52473" data-name="Group 52473" transform="translate(87.803 65.494)">
        <path id="Path_105845" data-name="Path 105845" d="M274.5,86.125a.4.4,0,0,0,.116-.012l2.047-.372a1.508,1.508,0,0,0,1.082-.6,1.469,1.469,0,0,0-.093-1.466,7.751,7.751,0,0,1-.023-6.816.668.668,0,0,0-1.2-.593,9.133,9.133,0,0,0,.023,7.991c.012.035.047.093.07.151a.59.59,0,0,0-.1.023l-2.047.372a.659.659,0,0,0-.535.768A.68.68,0,0,0,274.5,86.125Z" transform="translate(-273.83 -75.891)"/>
      </g>
      <g id="Group_52477" data-name="Group 52477" transform="translate(68.349 54.406)">
        <g id="Group_52474" data-name="Group 52474">
          <path id="Path_105846" data-name="Path 105846" d="M263,85.133a8.344,8.344,0,0,1-5.048-4.641,10.357,10.357,0,0,1,4.2-12.945,8.237,8.237,0,0,1,11.864,3.85,10.357,10.357,0,0,1-4.2,12.945,8.551,8.551,0,0,1-4.3,1.186A8.4,8.4,0,0,1,263,85.133ZM262.81,68.7a9.041,9.041,0,0,0-3.652,11.247,6.908,6.908,0,0,0,9.979,3.245,9.041,9.041,0,0,0,3.652-11.247,7.047,7.047,0,0,0-4.245-3.92,6.765,6.765,0,0,0-2.082-.326A7.234,7.234,0,0,0,262.81,68.7Z" transform="translate(-257.104 -66.358)"/>
        </g>
        <g id="Group_52475" data-name="Group 52475" transform="translate(23.383 5.507)">
          <path id="Path_105847" data-name="Path 105847" d="M283.1,89.862c-4.606-1.5-7.014-6.839-5.374-11.9a10.08,10.08,0,0,1,4.525-5.688,8.4,8.4,0,0,1,6.816-.791c4.606,1.5,7.014,6.827,5.374,11.9a9.6,9.6,0,0,1-8.851,6.874A7.955,7.955,0,0,1,283.1,89.862Zm-.186-16.435a8.758,8.758,0,0,0-3.92,4.943h0c-1.419,4.373.6,8.956,4.513,10.224s8.246-1.256,9.654-5.618-.6-8.956-4.513-10.224a6.765,6.765,0,0,0-2.082-.326A7.353,7.353,0,0,0,282.91,73.427Z" transform="translate(-277.207 -71.093)"/>
        </g>
        <g id="Group_52476" data-name="Group 52476" transform="translate(16.769 7.352)">
          <path id="Path_105848" data-name="Path 105848" d="M279.743,77.065a.67.67,0,0,0,.651-.535c.291-1.4-.872-2.617-2.14-3.21a7.069,7.069,0,0,0-6.409.268.662.662,0,1,0,.675,1.14,5.749,5.749,0,0,1,5.176-.209c.779.361,1.524,1.093,1.4,1.733a.681.681,0,0,0,.523.791A.23.23,0,0,0,279.743,77.065Z" transform="translate(-271.521 -72.68)"/>
        </g>
      </g>
      <g id="Group_52478" data-name="Group 52478" transform="translate(64.881 55.644)">
        <path id="Path_105849" data-name="Path 105849" d="M261.389,69.816a.652.652,0,0,0,.651-.558.67.67,0,0,0-.547-.768L254.9,67.431a.666.666,0,0,0-.221,1.314l6.595,1.058A.436.436,0,0,0,261.389,69.816Z" transform="translate(-254.123 -67.423)"/>
      </g>
      <g id="Group_52479" data-name="Group 52479" transform="translate(71.255 20.7)">
        <path id="Path_105850" data-name="Path 105850" d="M260.274,41.684a.62.62,0,0,0,.419-.151,12.021,12.021,0,0,1,5.374-2.384,30.175,30.175,0,0,1,6.106-.442h0a.663.663,0,0,0,.663-.663.655.655,0,0,0-.663-.663,31.381,31.381,0,0,0-6.374.465,13.3,13.3,0,0,0-5.955,2.664.677.677,0,0,0-.093.942A.706.706,0,0,0,260.274,41.684Z" transform="translate(-259.602 -37.379)"/>
      </g>
      <g id="Group_52480" data-name="Group 52480" transform="translate(62.715 55.261)">
        <path id="Path_105851" data-name="Path 105851" d="M252.923,73.405a.671.671,0,0,0,.651-.547,12.518,12.518,0,0,1,1.9-4.734.663.663,0,0,0-1.1-.733,13.845,13.845,0,0,0-2.094,5.234.654.654,0,0,0,.535.768C252.842,73.394,252.888,73.405,252.923,73.405Z" transform="translate(-252.26 -67.093)"/>
      </g>
      <g id="Group_52481" data-name="Group 52481" transform="translate(70.482 21.815)" opacity="0.129">
        <path id="Path_105852" data-name="Path 105852" d="M281.365,39.655a3.015,3.015,0,0,0-1.326-.57,19.041,19.041,0,0,0-2.268-.442A27.442,27.442,0,0,0,264.4,40.05c-1.128.407-2.2.942-3.292,1.419a4.55,4.55,0,0,0-1.826,1.2,1.714,1.714,0,0,0,2.3,2.443,26.46,26.46,0,0,1,9.793-3.187,18.785,18.785,0,0,1,5.909.093c.7.081,1.4.186,2.082.326a2.034,2.034,0,0,0,1.745-.1A1.648,1.648,0,0,0,281.365,39.655Z" transform="translate(-258.938 -38.338)"/>
      </g>
      <g id="Group_52482" data-name="Group 52482" transform="translate(78.398 39.766)" opacity="0.129">
        <path id="Path_105853" data-name="Path 105853" d="M297.2,73.345a1.3,1.3,0,0,0-.942-1.07c-.163-.058-1.024-.326-1.233-.372-1.349-.407-2.722-.756-4.036-1.256a74.849,74.849,0,0,1-7.456-3.14,50.687,50.687,0,0,1-8.526-5.2,31.2,31.2,0,0,1-6.746-7.211c-.407-.477-.7-1.221-1.384-1.314a1.016,1.016,0,0,0-.93,1.605c2.466,3.361,4.99,6.758,8.4,9.212a59.156,59.156,0,0,0,6.13,4.024c1.721.907,3.513,1.687,5.292,2.477a84.631,84.631,0,0,0,8.246,3.222c.454.151.919.268,1.384.384a1.47,1.47,0,0,0,.837.023A1.243,1.243,0,0,0,297.2,73.345Z" transform="translate(-265.744 -53.771)"/>
      </g>
      <g id="Group_52483" data-name="Group 52483" transform="translate(70.333 90.465)" opacity="0.129">
        <path id="Path_105854" data-name="Path 105854" d="M272.151,108.933c.035-.523.058-1.035.081-1.559a19.426,19.426,0,0,1,.163-2.966c.058-.942.116-1.873.174-2.815a.378.378,0,0,1,.116-.256v-.221a.345.345,0,0,1,.279-.384c-.454-.628-1.431-.314-2.163-.233a9.566,9.566,0,0,1-2.2,0,32.491,32.491,0,0,1-6.118-1.687c-.244-.221-.489-.454-.733-.675-.7-.233-1.372-.489-2.035-.779-.023.081-.058.174-.081.244a1.39,1.39,0,0,1-.128.3c-.047.07-.093.14-.14.2-.186.244-.372.489-.558.744a2.188,2.188,0,0,0,.14.209c2.117,2.175,4.362,4.234,6.409,6.479,1.012,1.128,2.047,2.233,3.094,3.338a8.5,8.5,0,0,0,1.454,1.291.036.036,0,0,1-.023-.012.043.043,0,0,0,.035.012l.07.035c.047.023.081.047.128.07a1.031,1.031,0,0,0,.2.093.04.04,0,0,1,.023.012.011.011,0,0,1-.012-.012,1.345,1.345,0,0,0,.361.081,1.247,1.247,0,0,0,1.14-.558.861.861,0,0,0,.268-.233C272.1,109.421,272.128,109.177,272.151,108.933Z" transform="translate(-258.81 -97.36)"/>
      </g>
      <g id="Group_52484" data-name="Group 52484" transform="translate(81.433 152.203)">
        <path id="Path_105855" data-name="Path 105855" d="M276.886,167.909c1.7-2.745-.221-6.374-.675-7.77-1.2-3.687-4.466-9.247-6.374-9.119a7.851,7.851,0,0,0-.849,4.92,20.127,20.127,0,0,0,2.489,7.758C272.664,165.792,274.316,167.676,276.886,167.909Z" transform="translate(-268.259 -150.346)" fill="#fff"/>
        <path id="Path_105856" data-name="Path 105856" d="M276.922,168.666c-2.384-.221-4.327-1.71-5.932-4.548a20.787,20.787,0,0,1-2.57-8.014,8.61,8.61,0,0,1,.954-5.362.7.7,0,0,1,.512-.3h.1c2.524,0,5.85,6.188,6.955,9.584.07.209.163.454.279.756.675,1.733,1.942,4.966.337,7.572a.659.659,0,0,1-.57.314A.074.074,0,0,1,276.922,168.666Zm-7.176-12.7a19.467,19.467,0,0,0,2.408,7.5c1.291,2.28,2.722,3.513,4.466,3.815.93-1.989-.047-4.49-.64-6.025-.128-.326-.233-.6-.3-.826-1.2-3.675-3.989-8.049-5.4-8.607A7.852,7.852,0,0,0,269.745,155.965Z" transform="translate(-268.353 -150.44)"/>
      </g>
      <g id="Group_52485" data-name="Group 52485" transform="translate(0.925 112.075)">
        <path id="Path_105857" data-name="Path 105857" d="M237.512,144.506c-3.082,10.212-10.991,26.089-12.469,29.264,21.622-6.723,41.93-12.608,56.178-17.04-4,7.456,1.372,14.085,6.851,17.04-11.026,6.746-75.707,40.79-87.536,19.6-3.85-6.886,1.221-23.89,3.385-31.474,3.059-10.712,14.62-37.569,24.437-45.955,5.536,2.105,10.77,6.118,12.434,11.806C242.42,133.329,239.245,138.784,237.512,144.506Z" transform="translate(-199.135 -115.94)" fill="#fff"/>
      </g>
      <g id="Group_52486" data-name="Group 52486" transform="translate(0.26 100.478)">
        <path id="Path_105858" data-name="Path 105858" d="M216.134,202.543c9.142,0,21.622-3.152,37.231-9.433A273.653,273.653,0,0,0,288.5,175.966a.666.666,0,0,0,.314-.582.692.692,0,0,0-.349-.57c-5.688-3.059-10.177-9.421-6.583-16.132a.672.672,0,0,0-.07-.733.661.661,0,0,0-.71-.209c-6.374,1.977-14.132,4.3-22.343,6.769-9.84,2.943-20.936,6.269-32.381,9.817.093-.186.186-.4.291-.6,2.664-5.548,8.886-18.528,11.561-27.38a.662.662,0,1,0-1.268-.384c-2.64,8.758-8.84,21.669-11.48,27.194-.419.872-.744,1.547-.942,1.989a.656.656,0,0,0,.1.721.664.664,0,0,0,.7.2c11.945-3.71,23.565-7.188,33.812-10.27,7.607-2.28,14.83-4.443,20.924-6.327-2.605,6.583,1.4,12.643,6.769,15.97-10.852,6.374-57.051,30.4-77.638,25.007A12.232,12.232,0,0,1,201.2,194.7c-3.582-6.409,1.012-22.436,3.21-30.148l.233-.826c3.14-11.026,14.574-37.406,24.321-46.4,8.235-7.6,28.124-9.538,34.765-9.979,2.163,4.559,7.456,8.968,12.259,8.456a9.134,9.134,0,0,0,6.455-4.2c8.13,3.9,16.481,7.967,22.937,14.446,9.165,9.212,14.109,26.124,17.726,38.464l.174.593a.666.666,0,0,0,1.279-.372l-.174-.593c-3.862-13.178-8.654-29.578-18.063-39.034-6.758-6.793-15.434-10.945-23.832-14.969a.667.667,0,0,0-.861.256,7.956,7.956,0,0,1-5.769,4.071c-4.3.454-9.293-3.908-11.084-8.1a.687.687,0,0,0-.651-.407c-6.246.384-27.287,2.28-36.045,10.363-9.91,9.154-21.518,35.847-24.693,47l-.233.826c-2.431,8.479-6.944,24.263-3.094,31.16,1.756,3.152,4.734,5.3,8.84,6.374A27.757,27.757,0,0,0,216.134,202.543Z" transform="translate(-198.564 -105.969)"/>
      </g>
      <g id="Group_52501" data-name="Group 52501" transform="translate(92.784 78.704)">
        <g id="Group_52487" data-name="Group 52487" transform="translate(0 52.67)">
          <path id="Path_105859" data-name="Path 105859" d="M301.767,136.541c-5.664,7.886-8.561,17.435-13.062,26.054-1.047,2-2.4,4.129-4.559,4.7a4.475,4.475,0,0,1-4.99-2.326,6.014,6.014,0,0,1,.012-4.687,17.965,17.965,0,0,1,2.477-4.094,254.488,254.488,0,0,0,14.934-23.076C298.336,134.192,300.092,135.3,301.767,136.541Z" transform="translate(-278.019 -132.438)" fill="#fff"/>
          <path id="Path_105860" data-name="Path 105860" d="M278.645,165.353a6.655,6.655,0,0,1,0-5.222,18.52,18.52,0,0,1,2.477-4.141l.081-.1a255.768,255.768,0,0,0,14.9-23.018.67.67,0,0,1,.419-.314.659.659,0,0,1,.512.081c1.733,1.082,3.536,2.21,5.234,3.466a.665.665,0,0,1,.14.919c-3.559,4.955-6.06,10.689-8.491,16.249-1.407,3.222-2.873,6.56-4.525,9.735-1.117,2.14-2.582,4.4-4.978,5.036a4.437,4.437,0,0,1-1.163.151A5.229,5.229,0,0,1,278.645,165.353Zm18.261-31.23a254.939,254.939,0,0,1-14.632,22.541l-.081.1a17.044,17.044,0,0,0-2.315,3.827,5.277,5.277,0,0,0-.035,4.164,3.824,3.824,0,0,0,4.222,1.977c1.908-.5,3.164-2.489,4.141-4.362,1.628-3.129,3.082-6.444,4.478-9.654,2.373-5.42,4.815-11.015,8.246-15.946C299.627,135.844,298.255,134.972,296.905,134.123Z" transform="translate(-278.113 -132.532)"/>
        </g>
        <g id="Group_52488" data-name="Group 52488" transform="translate(14.059 47.666)">
          <path id="Path_105861" data-name="Path 105861" d="M303.48,135.443a4.851,4.851,0,0,1-.989,3.652,2.1,2.1,0,0,1-1.047.779,2.412,2.412,0,0,1-1.279-.1,24.113,24.113,0,0,1-7.235-4.083,5.653,5.653,0,0,1-1.71-1.652,3.583,3.583,0,0,1-.43-1.768c.012-1.7,1.3-3.454,3-3.478a4.938,4.938,0,0,1,2.489.9,55.7,55.7,0,0,1,6.037,4.106C303,134.361,303.747,135.013,303.48,135.443Z" transform="translate(-290.104 -128.139)" fill="#fff"/>
          <path id="Path_105862" data-name="Path 105862" d="M300.063,140.5a24.921,24.921,0,0,1-7.444-4.187,6.36,6.36,0,0,1-1.9-1.849,4.145,4.145,0,0,1-.523-2.094c.012-1.942,1.512-4.117,3.664-4.141h.035a5.58,5.58,0,0,1,2.8.989,55.941,55.941,0,0,1,6.106,4.164c.616.489,1.733,1.361,1.442,2.256a5.582,5.582,0,0,1-1.151,3.966,2.682,2.682,0,0,1-1.4,1.012,2.389,2.389,0,0,1-.57.07A3.761,3.761,0,0,1,300.063,140.5Zm1.931-6.071a54.953,54.953,0,0,0-5.967-4.059,4.426,4.426,0,0,0-2.152-.8c-1.338.012-2.338,1.5-2.338,2.815a2.8,2.8,0,0,0,.349,1.431,5.178,5.178,0,0,0,1.524,1.442,23.866,23.866,0,0,0,7.037,3.978,1.872,1.872,0,0,0,.919.1,1.477,1.477,0,0,0,.7-.547,4.2,4.2,0,0,0,.849-3.152.957.957,0,0,1,.023-.314A3.863,3.863,0,0,0,301.994,134.429Z" transform="translate(-290.2 -128.23)"/>
        </g>
        <g id="Group_52490" data-name="Group 52490" transform="translate(5.769)">
          <g id="Group_52489" data-name="Group 52489">
            <path id="Path_105863" data-name="Path 105863" d="M284.987,123.355a32.5,32.5,0,0,0,11,15.144c6.327,4.955,14.609,7.851,22.495,6.339,11.294-2.163,18.179-9.27,20.575-15.853a31.12,31.12,0,0,0-5.3-30.043c-6.851-8.153-18.342-13.027-28.671-10.433C279.706,94.894,283,117.342,284.987,123.355Zm4.2-6.06a21.364,21.364,0,0,1,3.443-14.155c2.757-4.117,9.2-9.863,20.238-9.735,9.107.1,15.655,7.49,18.354,11.329,1.628,2.315,4.373,9.561,3.361,18.261-1.338,11.5-14.446,20.785-28.38,16.1C297.223,136.056,290.256,126.7,289.186,117.3Z" transform="translate(-282.978 -87.158)" fill="#fff"/>
            <path id="Path_105864" data-name="Path 105864" d="M295.666,139.113a33.031,33.031,0,0,1-11.224-15.458c-1.477-4.478-2.768-14.271,1.814-22.611,3.536-6.444,9.852-10.84,18.749-13.073,10.084-2.536,21.867,1.745,29.345,10.642a31.692,31.692,0,0,1,5.42,30.695c-2.315,6.362-9.061,13.969-21.076,16.272a23.572,23.572,0,0,1-4.443.419A30.544,30.544,0,0,1,295.666,139.113Zm9.665-49.863h0c-8.526,2.14-14.551,6.327-17.9,12.422-4.362,7.944-3.14,17.284-1.721,21.552a32.063,32.063,0,0,0,10.782,14.83c6.793,5.315,14.795,7.583,21.96,6.211,11.468-2.2,17.889-9.41,20.075-15.423a30.31,30.31,0,0,0-5.187-29.392c-5.781-6.9-14.26-10.9-22.355-10.9A24.822,24.822,0,0,0,305.332,89.251Zm.744,50.549.209-.628-.209.628c-8.991-3.024-16.33-12.422-17.458-22.332a22.176,22.176,0,0,1,3.547-14.6c1.582-2.373,7.711-10.038,20.436-10.038h.361c9.759.116,16.458,8.153,18.889,11.608,1.873,2.664,4.478,10.107,3.478,18.714a20.292,20.292,0,0,1-9.468,14.423,22.531,22.531,0,0,1-12.12,3.489A24.01,24.01,0,0,1,306.076,139.8ZM293.27,103.6a20.853,20.853,0,0,0-3.338,13.713c1.07,9.433,8.037,18.354,16.563,21.227h0a21.681,21.681,0,0,0,18.633-2.094A18.921,18.921,0,0,0,333.991,123c1-8.549-1.756-15.679-3.245-17.8-2.315-3.28-8.665-10.933-17.819-11.038h-.349C300.54,94.159,294.771,101.37,293.27,103.6Z" transform="translate(-283.073 -87.249)"/>
          </g>
        </g>
        <g id="Group_52491" data-name="Group 52491" transform="translate(17.279 58.12)">
          <path id="Path_105865" data-name="Path 105865" d="M294.75,140.745a.339.339,0,0,0,.1-.023.225.225,0,0,0,.093-.3l-1.559-3.082a.224.224,0,1,0-.4.209l1.559,3.082A.225.225,0,0,0,294.75,140.745Z" transform="translate(-292.968 -137.218)"/>
        </g>
        <g id="Group_52492" data-name="Group 52492" transform="translate(15.716 60.326)">
          <path id="Path_105866" data-name="Path 105866" d="M293.585,144.006a.227.227,0,0,0,.081-.012.215.215,0,0,0,.128-.279c-.547-1.5-1.128-3-1.745-4.466a.221.221,0,0,0-.407.174c.616,1.466,1.2,2.954,1.733,4.443A.224.224,0,0,0,293.585,144.006Z" transform="translate(-291.625 -139.115)"/>
        </g>
        <g id="Group_52493" data-name="Group 52493" transform="translate(13.964 63.403)">
          <path id="Path_105867" data-name="Path 105867" d="M292.249,147.366a.1.1,0,0,0,.058-.012.216.216,0,0,0,.151-.268,32.768,32.768,0,0,0-1.919-5.2.217.217,0,0,0-.291-.1.208.208,0,0,0-.1.291,32.314,32.314,0,0,1,1.9,5.129A.213.213,0,0,0,292.249,147.366Z" transform="translate(-290.118 -141.76)"/>
        </g>
        <g id="Group_52494" data-name="Group 52494" transform="translate(12.082 66.415)">
          <path id="Path_105868" data-name="Path 105868" d="M290.687,150.363a.148.148,0,0,0,.07-.012.228.228,0,0,0,.151-.279c-.582-1.884-1.245-3.757-1.977-5.583a.225.225,0,1,0-.419.163c.733,1.814,1.4,3.675,1.966,5.548A.21.21,0,0,0,290.687,150.363Z" transform="translate(-288.5 -144.35)"/>
        </g>
        <g id="Group_52495" data-name="Group 52495" transform="translate(10.119 69.372)">
          <path id="Path_105869" data-name="Path 105869" d="M289.194,154.531a.087.087,0,0,0,.058-.012.228.228,0,0,0,.151-.279l-2.152-7.188a.224.224,0,0,0-.43.128l2.152,7.188A.264.264,0,0,0,289.194,154.531Z" transform="translate(-286.812 -146.892)"/>
        </g>
        <g id="Group_52496" data-name="Group 52496" transform="translate(7.944 73.512)">
          <path id="Path_105870" data-name="Path 105870" d="M287.1,157.661a.1.1,0,0,0,.058-.012.223.223,0,0,0,.151-.279l-1.931-6.758a.224.224,0,1,0-.43.128l1.931,6.758A.233.233,0,0,0,287.1,157.661Z" transform="translate(-284.942 -150.452)"/>
        </g>
        <g id="Group_52497" data-name="Group 52497" transform="translate(5.471 77.065)">
          <path id="Path_105871" data-name="Path 105871" d="M284.914,161.42a.1.1,0,0,0,.058-.012.233.233,0,0,0,.163-.268l-1.884-7.467a.221.221,0,0,0-.43.1l1.884,7.467A.2.2,0,0,0,284.914,161.42Z" transform="translate(-282.816 -153.506)"/>
        </g>
        <g id="Group_52498" data-name="Group 52498" transform="translate(3.152 80.875)">
          <path id="Path_105872" data-name="Path 105872" d="M282.111,160.967a.1.1,0,0,0,.058-.012.223.223,0,0,0,.151-.279l-1.058-3.734a.224.224,0,1,0-.43.128l1.058,3.734A.233.233,0,0,0,282.111,160.967Z" transform="translate(-280.822 -156.782)"/>
        </g>
        <g id="Group_52499" data-name="Group 52499" transform="translate(35.664 14.621)" opacity="0.129">
          <path id="Path_105873" data-name="Path 105873" d="M309.63,135.877a.2.2,0,0,1,.058-.023h.012c.244-.756,1.012-.954,1.745-.989.291-.07.326-.047.64-.1.709-.337,1.78-.849,2.582-1.2a20.28,20.28,0,0,0,4.269-2.466l.174-.14.012-.012a21.128,21.128,0,0,0,2.105-2.222,19.633,19.633,0,0,0,3.059-5.432,25.222,25.222,0,0,0,.977-5.629,24.955,24.955,0,0,0,.093-6.106c-.023-.128-.047-.279-.058-.384-.675-3.7-.884-4.955-1.57-8.142-.151-.57-.291-1.151-.43-1.721a1.164,1.164,0,0,1,2.222-.7.705.705,0,0,1,.2.337c.151.361.314.71.465,1.07a1.451,1.451,0,0,1,1.314.872,25.38,25.38,0,0,1,1.175,2.4,3.848,3.848,0,0,1,.407,1.826.907.907,0,0,1,.035.256,34.287,34.287,0,0,1,.361,3.931c.151.628.3,1.256.419,1.9a22.418,22.418,0,0,1,.512,5.118,25.471,25.471,0,0,1-.593,5.06,17.043,17.043,0,0,1-1.663,3.978,1.117,1.117,0,0,1-.3.663q-.244.227-.454.454a11.473,11.473,0,0,1-.768.919c-.058.07-.128.128-.2.2-1.57,1.966-2.873,4.21-5.025,5.595a22.424,22.424,0,0,1-6.13,2.187c-.244.047-.465.1-.675.163a.764.764,0,0,1-.14.07c.023-.012.07-.035.128-.058a9.233,9.233,0,0,1-3.42.965,4.984,4.984,0,0,1-1.349-.07A1.341,1.341,0,0,1,309.63,135.877Z" transform="translate(-308.775 -99.819)"/>
        </g>
        <g id="Group_52500" data-name="Group 52500" transform="translate(15.902 56.237)" opacity="0.129">
          <path id="Path_105874" data-name="Path 105874" d="M293.047,135.6c.7-.023,1.175.593,1.8.826.43.2.849.419,1.268.616.4.233.907.349,1.2.733a1.371,1.371,0,0,1-1.687,2.094,17.971,17.971,0,0,1-3.175-1.8.161.161,0,0,0-.047-.035A1.316,1.316,0,0,1,293.047,135.6Z" transform="translate(-291.785 -135.599)"/>
        </g>
      </g>
      <g id="Group_52502" data-name="Group 52502" transform="translate(81.121 140.121)">
        <path id="Path_105875" data-name="Path 105875" d="M277.953,146.827c2.117-2.14,4.338-4.28,7.1-5.478s7.781-.512,7.781-.512l-2.408,3.757a8.729,8.729,0,0,0-4.78,2.954c2.536-.163,5.164-.349,7.421-1.535a9.15,9.15,0,0,1,3.257-1.442c1.2-.1,2.582.942,2.21,2.082s-2.082,1.361-2.512,2.489a2.554,2.554,0,0,1-.047,5.094,1.791,1.791,0,0,1,.954,2.222c-.268.849-1.268,1.5-1.919,2.105a24.549,24.549,0,0,1-6.676,4.711c-5.129,2.256-13.411,4.059-14.737,4.315-.384.07-4.048-3.548-4.757-7.1-.419-2.059-.128-4.536,1.349-6.025C270.765,153.888,275.848,148.979,277.953,146.827Z" transform="translate(-267.991 -139.957)" fill="#fff"/>
        <path id="Path_105876" data-name="Path 105876" d="M268.265,160.741c-.407-2.047-.221-4.85,1.535-6.63.2-.2.872-.861,1.78-1.745,1.826-1.78,4.594-4.478,6-5.92,2.233-2.256,4.466-4.4,7.3-5.629,2.9-1.256,7.921-.593,8.13-.558a.671.671,0,0,1,.512.384.661.661,0,0,1-.047.64l-2.408,3.757a.66.66,0,0,1-.43.291,8.467,8.467,0,0,0-3.175,1.5,14.387,14.387,0,0,0,5.374-1.326c.256-.128.5-.279.756-.43a6.673,6.673,0,0,1,2.757-1.093,3,3,0,0,1,2.524,1.082,1.959,1.959,0,0,1,.384,1.873,3.187,3.187,0,0,1-1.535,1.628c-.163.1-.314.209-.454.3a3.187,3.187,0,0,1,.128,5.734,2.674,2.674,0,0,1,.256,2.14,4.683,4.683,0,0,1-1.628,1.989c-.163.14-.326.279-.477.407a25.322,25.322,0,0,1-6.862,4.839,88.536,88.536,0,0,1-14.888,4.35c-.023,0-.047.012-.081.012C272.511,168.36,268.917,163.975,268.265,160.741Zm5.595,6.327Zm22.611-21.739a5.564,5.564,0,0,0-2.2.919c-.268.163-.535.314-.814.454-2.419,1.268-5.211,1.454-7.677,1.605a.645.645,0,0,1-.628-.349.653.653,0,0,1,.058-.721,9.363,9.363,0,0,1,4.9-3.14l1.675-2.617c-1.57-.128-4.548-.221-6.374.57-2.629,1.14-4.757,3.175-6.886,5.339-1.419,1.442-4.187,4.152-6.025,5.932-.9.872-1.57,1.524-1.756,1.721-1.384,1.4-1.512,3.722-1.175,5.42.6,2.978,3.443,5.99,4.187,6.525a88.243,88.243,0,0,0,14.4-4.222,24.259,24.259,0,0,0,6.49-4.594q.244-.227.523-.454a3.793,3.793,0,0,0,1.221-1.372,1.152,1.152,0,0,0-.523-1.4.669.669,0,0,1,.163-1.3,1.889,1.889,0,0,0,.047-3.768.658.658,0,0,1-.57-.9,3.419,3.419,0,0,1,1.512-1.547c.465-.3.872-.558.989-.919a.635.635,0,0,0-.163-.628,1.7,1.7,0,0,0-1.256-.593A.166.166,0,0,1,296.471,145.33Z" transform="translate(-268.084 -140.053)"/>
      </g>
      <g id="Group_52509" data-name="Group 52509" transform="translate(119.554 99.339)">
        <g id="Group_52503" data-name="Group 52503">
          <path id="Path_105877" data-name="Path 105877" d="M337.547,105.723,301.7,175.475l46.338-.081L382.42,105.56Z" transform="translate(-301.035 -104.897)" fill="#fff"/>
          <path id="Path_105878" data-name="Path 105878" d="M301.223,175.9a.681.681,0,0,1-.023-.651l35.847-69.74a.664.664,0,0,1,.593-.361l44.873-.163h0a.673.673,0,0,1,.57.314.653.653,0,0,1,.035.651l-34.393,69.822a.654.654,0,0,1-.593.372l-46.338.081h0A.669.669,0,0,1,301.223,175.9Zm80.22-69.577-43.4.163L302.875,174.9l44.826-.081Z" transform="translate(-301.128 -104.99)"/>
        </g>
        <g id="Group_52504" data-name="Group 52504" transform="translate(53.371 26.149)">
          <path id="Path_105879" data-name="Path 105879" d="M361.585,129.481l-9.456-1.291a8.077,8.077,0,0,0-2.3-.093,2.832,2.832,0,0,0-1.954,1.117,1.321,1.321,0,0,0,.5,1.64,32.863,32.863,0,0,0,8.119,2.861c-.14.593-.861.826-1.477.9a23.093,23.093,0,0,1-4.094.361c-3.385-.174-3.931,1.512-2.826,2.408.57.465,4.908,1.454,6.955,1.4a5.848,5.848,0,0,1-2.559.71,5.246,5.246,0,0,0-2.524.791,1.849,1.849,0,0,0-.616,2.349,2.633,2.633,0,0,0,1.8.907,25.954,25.954,0,0,0,2.838.372,3.83,3.83,0,0,0-1.151.861,1.315,1.315,0,0,0-.256,1.349,1.684,1.684,0,0,0,1.291.791,5.825,5.825,0,0,0,3.85-.6,9.429,9.429,0,0,0,3.036-2.989,24.707,24.707,0,0,0,3.989-9.34,5.278,5.278,0,0,0,.128-1.756C364.678,130.737,363.108,129.691,361.585,129.481Z" transform="translate(-346.923 -127.378)" fill="#fff"/>
          <path id="Path_105880" data-name="Path 105880" d="M353.848,147.661a2.276,2.276,0,0,1-1.78-1.175,1.964,1.964,0,0,1,.314-2q-.628-.087-1.256-.209a3.206,3.206,0,0,1-2.245-1.2,2.5,2.5,0,0,1,.779-3.245,4.055,4.055,0,0,1,1.721-.733,11.924,11.924,0,0,1-3.606-1.117,1.8,1.8,0,0,1-.651-2.059c.2-.512.977-1.687,3.931-1.535a16.873,16.873,0,0,0,3.14-.233c.244-.035.5-.07.756-.1a27.067,27.067,0,0,1-6.8-2.536,1.852,1.852,0,0,1-.884-1.221,1.818,1.818,0,0,1,.163-1.361,3.431,3.431,0,0,1,2.408-1.407,8.786,8.786,0,0,1,2.489.093l9.456,1.291h0c1.721.233,3.606,1.454,3.873,3.327a5.753,5.753,0,0,1-.128,1.977,25.7,25.7,0,0,1-4.106,9.6A10.17,10.17,0,0,1,358.164,147a6.52,6.52,0,0,1-3.082.779A6.24,6.24,0,0,1,353.848,147.661Zm-1.71-18.714a7.67,7.67,0,0,0-2.117-.093,2.133,2.133,0,0,0-1.477.791.7.7,0,0,0,.268.733,27.275,27.275,0,0,0,6.886,2.5c.349.093.709.186,1.07.291a.662.662,0,0,1,.477.791c-.128.535-.582,1.221-2.035,1.407-.279.035-.547.07-.814.116a16.407,16.407,0,0,1-3.4.244c-1.826-.093-2.512.407-2.629.686-.093.244.174.488.244.547a21.6,21.6,0,0,0,6.525,1.256.659.659,0,0,1,.651.465.668.668,0,0,1-.268.756,6.423,6.423,0,0,1-2.838.814,4.624,4.624,0,0,0-2.21.663c-.442.337-.744,1.035-.465,1.454a2.136,2.136,0,0,0,1.372.616c.919.174,1.849.291,2.768.372a.655.655,0,0,1,.593.523.664.664,0,0,1-.326.721,3.615,3.615,0,0,0-.965.7.71.71,0,0,0-.174.651c.081.186.384.337.814.419a5.138,5.138,0,0,0,3.4-.535,8.926,8.926,0,0,0,2.815-2.78,24.086,24.086,0,0,0,3.885-9.084,4.846,4.846,0,0,0,.116-1.535c-.174-1.21-1.535-2.024-2.733-2.187h0Z" transform="translate(-347.014 -127.472)"/>
        </g>
        <g id="Group_52505" data-name="Group 52505" transform="translate(42.281 11.55)">
          <path id="Path_105881" data-name="Path 105881" d="M338.143,116.246h24.088a.663.663,0,0,0,0-1.326H338.143a.663.663,0,0,0-.663.663A.655.655,0,0,0,338.143,116.246Z" transform="translate(-337.48 -114.92)"/>
        </g>
        <g id="Group_52506" data-name="Group 52506" transform="translate(37.838 20.808)">
          <path id="Path_105882" data-name="Path 105882" d="M334.323,124.206h24.088a.663.663,0,1,0,0-1.326H334.323a.663.663,0,0,0-.663.663A.655.655,0,0,0,334.323,124.206Z" transform="translate(-333.66 -122.88)"/>
        </g>
        <g id="Group_52507" data-name="Group 52507" transform="translate(25.381 46.117)">
          <path id="Path_105883" data-name="Path 105883" d="M323.613,145.966H347.7a.663.663,0,0,0,0-1.326H323.613a.663.663,0,0,0,0,1.326Z" transform="translate(-322.95 -144.64)"/>
        </g>
        <g id="Group_52508" data-name="Group 52508" transform="translate(20.159 55.236)">
          <path id="Path_105884" data-name="Path 105884" d="M319.123,153.806h24.088a.663.663,0,0,0,.663-.663.67.67,0,0,0-.663-.663H319.123a.663.663,0,0,0-.663.663A.67.67,0,0,0,319.123,153.806Z" transform="translate(-318.46 -152.48)"/>
        </g>
      </g>
      <g id="Group_52510" data-name="Group 52510" transform="translate(61.986 104.007)">
        <path id="Path_105885" data-name="Path 105885" d="M258.294,119.468a.688.688,0,0,0,.57-.314.666.666,0,0,0-.221-.919,12.4,12.4,0,0,1-5.688-8.665.665.665,0,1,0-1.314.2,13.736,13.736,0,0,0,6.3,9.607A.711.711,0,0,0,258.294,119.468Z" transform="translate(-251.633 -109.003)"/>
      </g>
      <g id="Group_52511" data-name="Group 52511" transform="translate(57.823 104.915)">
        <path id="Path_105886" data-name="Path 105886" d="M250.562,116.1a.554.554,0,0,0,.233-.047.668.668,0,0,0,.4-.861l-1.838-4.966a.67.67,0,0,0-1.256.465l1.838,4.955A.666.666,0,0,0,250.562,116.1Z" transform="translate(-248.054 -109.784)"/>
      </g>
      <g id="Group_52512" data-name="Group 52512" transform="translate(30.857 140.408)" opacity="0.129">
        <path id="Path_105887" data-name="Path 105887" d="M226.626,156.63c.791-1.7,1.489-3.443,2.3-5.141a1.769,1.769,0,0,1,1.593-1.3c.233-.942.454-1.884.651-2.826.349-1.524.535-3.071.814-4.606.174-.64.093-1.407.5-1.954a1.282,1.282,0,0,1,2.245,1.117c-.954,5.885-2.094,14.818-3.7,18.912a1.732,1.732,0,0,1-1.838,1.093,2.826,2.826,0,0,1-2.035.419c.035,0,.07.012.116.012-1.151.093-2.384-.174-2.408-1.57A17.331,17.331,0,0,1,226.626,156.63Z" transform="translate(-224.87 -140.3)"/>
      </g>
      <g id="Group_52513" data-name="Group 52513" transform="translate(172.25 134.018)" opacity="0.129">
        <path id="Path_105888" data-name="Path 105888" d="M347.2,134.915a1.226,1.226,0,0,1,1.663,1.326c0,.012.012.035.012.047a.308.308,0,0,0,.07.058c.012.012.023.012.035.023a.255.255,0,0,1,.058.035.8.8,0,0,1,.093.035,8.091,8.091,0,0,0,.919.209h.012a3.835,3.835,0,0,1,1.372.128,1.348,1.348,0,0,1-.523,2.582,5.6,5.6,0,0,1-1.082-.023,1.238,1.238,0,0,1,.128,1.466c-.012.012-.012.035-.023.047a3.534,3.534,0,0,0-.14.465h0c.035.035.058.07.093.1.116.116.221.233.337.337h0a.928.928,0,0,0,.186.093,4.882,4.882,0,0,0,.582.2c.582.151,1.279.14,1.675.616a1.3,1.3,0,0,1,.686,1.512c-.419.942-.233,2.617-1.57,2.757a1.3,1.3,0,0,1-1.431-1.628,5.572,5.572,0,0,0,.116-.547,4.227,4.227,0,0,1-1.663-.57,3.047,3.047,0,0,1-1.372-3.129c-.012.058-.023.151-.035.221a3.828,3.828,0,0,1,.4-1.268,1.684,1.684,0,0,1,.837-.965,3.623,3.623,0,0,1-1.78-1.3C346.383,136.951,346.092,135.369,347.2,134.915Z" transform="translate(-346.434 -134.805)"/>
      </g>
      <g id="Group_52514" data-name="Group 52514" transform="translate(172.387 127.64)" opacity="0.129">
        <path id="Path_105889" data-name="Path 105889" d="M346.864,129.645a1.121,1.121,0,0,1,1.861.488.575.575,0,0,0,.047.151c.023.058,0-.012-.035-.081.047.128.058.14.07.151h0c.093.116.279.291.361.384.093.07.2.14.291.2a4.106,4.106,0,0,0,1.268.547c.919.256,1.838.547,2.768.756a4.023,4.023,0,0,1,1.663.5,1.267,1.267,0,0,1-1.1,2.222c-2.222-.593-4.815-.8-6.467-2.582C346.875,131.6,346.108,130.459,346.864,129.645Z" transform="translate(-346.552 -129.322)"/>
      </g>
    </g>
  </g>
</svg>
